<?xml version="1.0" encoding="utf-8"?>
<!-- Generator: Adobe Illustrator 18.0.0, SVG Export Plug-In . SVG Version: 6.00 Build 0)  -->
<!DOCTYPE svg PUBLIC "-//W3C//DTD SVG 1.1//EN" "http://www.w3.org/Graphics/SVG/1.1/DTD/svg11.dtd">
<svg version="1.1" id="Слой_1" xmlns="http://www.w3.org/2000/svg" xmlns:xlink="http://www.w3.org/1999/xlink" x="0px" y="0px"
	 viewBox="0 0 50 62" enable-background="new 0 0 50 62" xml:space="preserve">
<g transform="matrix( 1, 0, 0, 1, 0,0) ">
	<g>
		<g id="Layer0_0_FILL">
			<path fill="#568446" d="M23.2,10.2c-0.7,0.3-1.2,0.7-1.5,1.2c-0.5,0.7-0.5,1.4-0.1,2.2c0.4,0.8,0.7,1.6,0.7,2.2
				c0,0.6-0.1,1.2-0.4,1.8c0.3-0.2,0.5-0.5,0.8-0.9c0.4-0.8,0.4-1.8,0-2.8c-0.4-1.1-0.5-2-0.2-2.7C22.6,11,22.9,10.7,23.2,10.2
				 M31.9,10c0.8-1.6,0.7-3-0.2-4.4c-0.7-1.1-1.8-2-3.1-2.6c0.9,0.8,1.4,1.5,1.7,2.1c0.6,1.5,0.5,3.4-0.5,5.6
				c-0.9,2.2-0.9,4.1,0,5.8c0.4,0.8,1,1.5,1.6,1.9c-0.7-1.2-1-2.4-0.9-3.7C30.6,13.2,31,11.7,31.9,10 M46.5,20.6
				c-0.3-0.3-0.8-0.5-1.2-0.5H5.6c-0.5,0-0.9,0.2-1.3,0.5C4,21,3.8,21.5,3.8,22v0c0,0.5,0.2,0.9,0.5,1.2c0.4,0.4,0.8,0.5,1.3,0.5
				h39.6c0.5,0,0.9-0.2,1.2-0.5c0.4-0.3,0.5-0.8,0.5-1.2v0C47,21.5,46.8,21,46.5,20.6 M45.7,26.2c0-0.3,0-0.6,0-1H5.9
				c0,0.3,0,0.6,0,1c0,1.6,0.2,3.1,0.5,4.6h11.8c0.4,0,0.8,0.1,1.1,0.4c0.3,0.3,0.4,0.6,0.4,1v0.1c0,0.4-0.1,0.7-0.4,1
				c-0.3,0.3-0.6,0.5-1.1,0.5H7.3c1,2.3,2.4,4.5,4.3,6.4c0.2,0.2,0.5,0.5,0.8,0.8c-0.1,0.1-0.2,0.2-0.2,0.4L5.5,56
				c-0.2,0.4-0.2,0.7-0.1,1.1c0.1,0.4,0.4,0.7,0.8,0.9c0.4,0.2,0.7,0.2,1.1,0c0.4-0.1,0.7-0.4,0.8-0.8L12,49h25.3l4.9,8.2
				c0.2,0.3,0.5,0.5,1,0.7c0.4,0.1,0.8,0,1.1-0.2c0.3-0.2,0.5-0.5,0.7-0.9c0.1-0.4,0-0.8-0.2-1.1l-7.8-13v0c0.9-0.7,1.9-1.5,2.8-2.4
				C43.8,36.4,45.7,31.8,45.7,26.2 M12.5,48l2.4-5.1c3.2,2.2,6.8,3.3,10.9,3.2c3.2,0,6.1-0.6,8.7-1.9v0l2.2,3.7H12.5z"/>
		</g>
	</g>
</g>
</svg>
