<?xml version="1.0" encoding="utf-8"?>
<!-- Generator: Adobe Illustrator 18.0.0, SVG Export Plug-In . SVG Version: 6.00 Build 0)  -->
<!DOCTYPE svg PUBLIC "-//W3C//DTD SVG 1.1//EN" "http://www.w3.org/Graphics/SVG/1.1/DTD/svg11.dtd">
<svg version="1.1" id="Слой_1" xmlns="http://www.w3.org/2000/svg" xmlns:xlink="http://www.w3.org/1999/xlink" x="0px" y="0px"
	 viewBox="0 0 55 40" enable-background="new 0 0 55 40" xml:space="preserve">
<g transform="matrix( 1, 0, 0, 1, 0,0) ">
	<g>
		<g id="Layer0_0_FILL">
			<path fill="#568446" d="M42,4.3L42,4.3l-34.2,0c0,5.3,1.7,9.8,5,13.6c1.6,1.8,3.4,3.2,5.4,4.1H9.2c-1.4,0-2.6,0.5-3.6,1.5
				c-1,1-1.4,2.2-1.4,3.5v0.6c0,1.4,0.5,2.5,1.4,3.5c1,1,2.2,1.5,3.6,1.5h37.5v-1.5h-2.4v-7.6h2.4V22H31.6c2-0.9,3.7-2.3,5.4-4.1
				c0.6-0.6,1.1-1.3,1.6-2c0,0,0.1,0,0.1,0.1c0.8,0.4,1.7,0.7,2.7,0.7c1.6,0,2.9-0.5,4-1.7l0.1-0.1c1.1-1.1,1.6-2.4,1.6-4
				c0-0.5,0-1-0.1-1.4c-0.1-0.4-0.3-0.9-0.5-1.2V8.1c-0.3-0.5-0.7-0.9-1.1-1.3c-0.9-0.9-2-1.5-3.3-1.6h0C42,4.9,42,4.6,42,4.3
				 M44,8.2c0.3,0.3,0.5,0.6,0.6,0.9c0,0,0,0,0.1,0c0.1,0.3,0.2,0.6,0.3,0.9c0.1,0.3,0.1,0.6,0.1,0.9c0,1-0.4,1.9-1.1,2.6
				c-0.7,0.7-1.6,1.1-2.6,1.1c-0.6,0-1.2-0.1-1.8-0.4c0-0.1,0.1-0.2,0.2-0.3c0.1-0.3,0.3-0.6,0.4-0.8c0.8-1.8,1.3-3.7,1.6-5.8
				C42.6,7.3,43.4,7.7,44,8.2 M42.5,23.5v7.6h-33c-0.4,0-0.8,0-1.1-0.1c0.2-0.1,0.4-0.3,0.5-0.5c0.4-0.4,0.6-0.9,0.6-1.4v-3.3
				c0-0.5-0.2-1-0.6-1.4c-0.3-0.3-0.6-0.5-1-0.5c0.5-0.2,1-0.4,1.6-0.4h14c0.5,0,0.9,0,1.4,0c0.4,0,0.9,0,1.3,0H42.5z"/>
		</g>
	</g>
</g>
</svg>
