<?xml version="1.0" encoding="utf-8"?>
<!-- Generator: Adobe Illustrator 18.0.0, SVG Export Plug-In . SVG Version: 6.00 Build 0)  -->
<!DOCTYPE svg PUBLIC "-//W3C//DTD SVG 1.1//EN" "http://www.w3.org/Graphics/SVG/1.1/DTD/svg11.dtd">
<svg version="1.1" id="Слой_1" xmlns="http://www.w3.org/2000/svg" xmlns:xlink="http://www.w3.org/1999/xlink" x="0px" y="0px"
	 viewBox="0 0 84 84" enable-background="new 0 0 84 84" xml:space="preserve">
<g transform="matrix( 1, 0, 0, 1, 0,0) ">
	<g>
		<g id="Layer2_0_FILL">
			<path d="M37.4,30.1c-0.4,1.5-0.6,3.2-0.6,5.2v4.9L33,41.5V48h3.8v25.7h10V48h10.2v-7.9H46.7v-3.8c0-2.1,0.3-3.6,0.9-4.6
				c0.6-0.9,1.5-1.3,2.7-1.3c1,0,2.7,0.3,5,0.9l2-5.9c-1.4-1.9-4.2-2.8-8.6-2.8c-2.2,0-4.1,0.3-5.7,0.9c-1.5,0.6-2.7,1.5-3.7,2.6
				C38.5,27.2,37.8,28.5,37.4,30.1z"/>
		</g>
	</g>
</g>
<g transform="matrix( 1, 0, 0, 1, 0,0) ">
	<g>
		<g id="Layer1_0_FILL">
			<path d="M80,6.7C80,2.2,77.8,0,73.3,0H6.7C2.2,0,0,2.2,0,6.7v66.6C0,77.7,2.2,80,6.7,80h66.5c4.5,0,6.7-2.3,6.7-6.8V6.7
				 M73.1,6.8v66.3H6.8V6.8H73.1z"/>
		</g>
	</g>
</g>
</svg>
