<?xml version="1.0" encoding="utf-8"?>
<!-- Generator: Adobe Illustrator 18.0.0, SVG Export Plug-In . SVG Version: 6.00 Build 0)  -->
<!DOCTYPE svg PUBLIC "-//W3C//DTD SVG 1.1//EN" "http://www.w3.org/Graphics/SVG/1.1/DTD/svg11.dtd">
<svg version="1.1" id="Слой_1" xmlns="http://www.w3.org/2000/svg" xmlns:xlink="http://www.w3.org/1999/xlink" x="0px" y="0px"
	 viewBox="0 0 58.4 58.5" enable-background="new 0 0 58.4 58.5" xml:space="preserve">
<g transform="matrix( 1, 0, 0, 1, 0,0) ">
	<g>
		<g id="Layer0_0_FILL">
			<path fill="#568446" d="M54.7,4.1C53.2,5.5,52,6.3,51,6.6c-1.2,0.3-0.7-1.2,1.7-4.7c-1.9-0.5-4.2-0.5-7.2-0.1
				c-5.8,0.9-11.3,3.8-16.4,8.5c-2.5-0.2-5.2,0.2-8.4,1.2c-3.6,1.1-4.9,2.4-4,3.9c0.5,0.8,1.9,1.9,4.1,3.1c1.7,0.9,2.3,2.1,1.8,3.7
				c-0.1,0.5-0.4,1.9-0.7,4.2c-0.3,2.2-0.6,3.9-1.1,5.1c-1.3,4.1-4,6.2-8,6.3c-5,0.1-8.3,0.6-9.9,1.6c-1.7,1-1.3,2.3,1.5,3.8
				c3.7,2.1,6.1,3.2,7.2,3.4l2.1,4.7c1.7,3.1,3.2,4.6,4.7,4.5c1.4-0.1,2.2-1.4,2.4-4.1c-0.1-3.4-0.2-5.9-0.2-7.4
				c0-4.5,3.5-7.2,10.6-8.1c3-0.4,5.8-1.1,8.3-2.2c1.3-0.5,2.2-1,2.9-1.5l1.9,3.3c1.4,2.1,2.6,2.9,3.6,2.5c1.1-0.5,1.9-1.9,2.4-4.3
				c0.5-2.2,0.6-4.6,0.3-7.2c1.8-3.8,3.2-7.4,4-10.8C56,10.6,56.1,6.7,54.7,4.1 M40.8,6.7c0.5-0.5,1.2-0.8,1.9-0.8
				c0.7,0,1.3,0.2,1.8,0.8c0.5,0.5,0.8,1.2,0.8,1.9s-0.3,1.3-0.8,1.8c-0.5,0.5-1.1,0.8-1.8,0.8c-0.7,0-1.4-0.3-1.9-0.8
				C40.2,9.9,40,9.3,40,8.6S40.2,7.2,40.8,6.7 M41.5,21.1c2.4,1.1,4.8,1.7,7,1.9c-5.3,1.6-9.5,0.6-12.5-3c-2.3-2.8-3.3-5.7-3.1-8.8
				C33.7,15.7,36.6,19,41.5,21.1z"/>
		</g>
	</g>
</g>
</svg>
