<?xml version="1.0" encoding="utf-8"?>
<!-- Generator: Adobe Illustrator 18.0.0, SVG Export Plug-In . SVG Version: 6.00 Build 0)  -->
<!DOCTYPE svg PUBLIC "-//W3C//DTD SVG 1.1//EN" "http://www.w3.org/Graphics/SVG/1.1/DTD/svg11.dtd">
<svg version="1.1" id="Слой_1" xmlns="http://www.w3.org/2000/svg" xmlns:xlink="http://www.w3.org/1999/xlink" x="0px" y="0px"
	 viewBox="0 0 57 55.1" enable-background="new 0 0 57 55.1" xml:space="preserve">
<g transform="matrix( 1, 0, 0, 1, 0,0) ">
	<g>
		<g id="Layer0_0_FILL">
			<path fill="#568446" d="M42,7.4c-0.4-0.1-0.7-0.2-1-0.5c-0.1-0.1-0.1-0.2-0.2-0.2c-3.6-2.2-7.7-3.2-12.2-3.2
				c-4.6,0-8.7,1.1-12.4,3.3c0,0.1-0.1,0.1-0.1,0.2c-0.3,0.3-0.6,0.5-0.9,0.6c-1.3,0.8-2.5,1.8-3.7,3c-2,2-3.6,4.2-4.7,6.5
				c0.3,0.4,0.5,0.8,0.5,1.3c0,0.5-0.2,1-0.6,1.4c-0.3,0.3-0.7,0.5-1.2,0.5c-0.7,2-1,4.2-1.1,6.5c0,0,0.1,0,0.1,0
				c0.6,0,1.2,0.2,1.6,0.6c0.5,0.5,0.7,1,0.7,1.6c0,0.6-0.2,1.2-0.7,1.6c-0.4,0.4-0.9,0.7-1.5,0.7c0.7,5.1,3,9.6,6.8,13.4
				c4.7,4.7,10.5,7.1,17.1,7.1c6.7,0,12.4-2.4,17.2-7.1c3.9-3.9,6.2-8.5,6.9-13.8c-0.1,0-0.1,0-0.2,0c-0.7,0-1.3-0.2-1.8-0.8
				c-0.5-0.5-0.7-1.1-0.7-1.8c0-0.7,0.2-1.3,0.7-1.8c0.5-0.5,1.1-0.7,1.8-0.7c0.1,0,0.3,0,0.4,0c-0.1-1.6-0.4-3.2-0.8-4.7
				c-0.1,0-0.3,0-0.4,0c-0.6,0-1.2-0.2-1.6-0.7c-0.5-0.5-0.7-1-0.7-1.6s0.2-1.2,0.7-1.7c0.1-0.1,0.3-0.2,0.5-0.3
				c-1.2-2.3-2.7-4.5-4.7-6.5C44.5,9.3,43.2,8.3,42,7.4 M44.1,12.5c0.5,0,1,0.2,1.4,0.6c0.4,0.4,0.5,0.8,0.5,1.3s-0.2,1-0.5,1.4
				c-0.4,0.4-0.8,0.5-1.4,0.5s-1-0.2-1.3-0.5c-0.4-0.4-0.5-0.8-0.5-1.4s0.2-1,0.5-1.3C43.1,12.7,43.6,12.5,44.1,12.5 M43.8,22
				c0.4-0.4,0.9-0.5,1.5-0.5c0.6,0,1,0.2,1.4,0.5c0.4,0.4,0.6,0.9,0.6,1.5s-0.2,1-0.6,1.4c-0.4,0.4-0.8,0.6-1.4,0.6
				c-0.6,0-1-0.2-1.5-0.6c-0.4-0.4-0.5-0.8-0.5-1.4S43.5,22.4,43.8,22 M42.7,31.8c0.4-0.4,1-0.6,1.5-0.6s1.1,0.2,1.5,0.6
				c0.4,0.4,0.6,1,0.6,1.5c0,0.6-0.2,1.1-0.6,1.5c-0.4,0.4-0.9,0.7-1.5,0.7s-1.1-0.2-1.5-0.7c-0.4-0.4-0.6-0.9-0.6-1.5
				S42.2,32.2,42.7,31.8 M44.8,41.7c0.4,0.4,0.5,0.8,0.5,1.3s-0.2,0.9-0.5,1.3s-0.8,0.5-1.3,0.5s-0.9-0.2-1.3-0.5
				c-0.4-0.4-0.6-0.8-0.6-1.3s0.2-0.9,0.6-1.3c0.4-0.4,0.8-0.6,1.3-0.6S44.4,41.3,44.8,41.7 M36,7.9c0.5,0,0.9,0.2,1.3,0.5
				s0.5,0.8,0.5,1.3s-0.2,0.9-0.5,1.3s-0.8,0.6-1.3,0.6c-0.5,0-0.9-0.2-1.3-0.6c-0.4-0.4-0.6-0.8-0.6-1.3s0.2-0.9,0.6-1.3
				C35,8.1,35.5,7.9,36,7.9 M26.9,5.3C27.2,5,27.6,4.8,28,4.8s0.8,0.2,1.1,0.5c0.3,0.3,0.5,0.7,0.5,1.1s-0.2,0.8-0.5,1.1
				c-0.3,0.3-0.7,0.5-1.1,0.5s-0.8-0.2-1.1-0.5c-0.3-0.3-0.4-0.7-0.4-1.1C26.5,6,26.6,5.6,26.9,5.3 M22,9.3c0.3,0.3,0.5,0.7,0.5,1.1
				c0,0.4-0.2,0.8-0.5,1.1c-0.3,0.3-0.7,0.5-1.1,0.5c-0.4,0-0.8-0.2-1.1-0.5c-0.3-0.3-0.5-0.7-0.5-1.1c0-0.4,0.1-0.8,0.5-1.1
				C20,9,20.4,8.9,20.9,8.9C21.3,8.9,21.6,9,22,9.3 M30.2,14.8c0,0.6-0.2,1.1-0.6,1.5c-0.4,0.4-1,0.7-1.6,0.7s-1.1-0.2-1.5-0.7
				c-0.4-0.4-0.6-0.9-0.6-1.5s0.2-1.1,0.6-1.6c0.4-0.4,0.9-0.6,1.5-0.6s1.1,0.2,1.6,0.6C30,13.6,30.2,14.2,30.2,14.8 M22.2,19
				c0,0.6-0.2,1.1-0.7,1.5c-0.4,0.4-0.9,0.6-1.5,0.6s-1.1-0.2-1.5-0.6c-0.4-0.4-0.6-0.9-0.6-1.5s0.2-1.1,0.6-1.6
				c0.4-0.4,0.9-0.6,1.5-0.6s1.1,0.2,1.5,0.6C22,17.8,22.2,18.4,22.2,19 M26,23.6c0-0.7,0.2-1.3,0.8-1.8c0.5-0.5,1.1-0.8,1.8-0.8
				c0.7,0,1.3,0.2,1.8,0.8c0.5,0.5,0.8,1.1,0.8,1.8s-0.2,1.3-0.8,1.8s-1.1,0.8-1.8,0.8c-0.7,0-1.3-0.2-1.8-0.8S26,24.3,26,23.6
				 M38.6,17.2c0.5,0.5,0.7,1,0.7,1.6c0,0.6-0.2,1.2-0.7,1.6c-0.4,0.5-1,0.7-1.6,0.7s-1.2-0.2-1.7-0.7c-0.4-0.4-0.6-1-0.6-1.6
				c0-0.6,0.2-1.2,0.6-1.6c0.5-0.4,1-0.6,1.7-0.6S38.2,16.8,38.6,17.2 M14.2,12.9c0.4,0.4,0.6,0.8,0.6,1.3s-0.2,0.9-0.6,1.2
				c-0.3,0.4-0.8,0.6-1.2,0.6s-0.9-0.2-1.3-0.6c-0.3-0.3-0.5-0.8-0.5-1.2c0-0.5,0.2-0.9,0.5-1.3c0.4-0.3,0.8-0.5,1.3-0.5
				C13.4,12.4,13.9,12.6,14.2,12.9 M13.4,21.6c0.4,0.4,0.7,1,0.7,1.6c0,0.6-0.2,1.1-0.7,1.5c-0.4,0.4-0.9,0.6-1.5,0.6
				s-1.1-0.2-1.6-0.6c-0.4-0.4-0.6-0.9-0.6-1.5s0.2-1.1,0.6-1.6c0.4-0.4,0.9-0.6,1.6-0.6S13.1,21.2,13.4,21.6 M17.8,28.6
				c0-0.6,0.2-1.2,0.6-1.6c0.4-0.4,1-0.6,1.6-0.6s1.2,0.2,1.6,0.6c0.4,0.4,0.6,1,0.6,1.6c0,0.6-0.2,1.2-0.6,1.6
				c-0.4,0.4-1,0.6-1.6,0.6s-1.2-0.2-1.6-0.6C18,29.8,17.8,29.3,17.8,28.6 M14.1,32.9c0,0.5-0.2,0.9-0.5,1.2
				c-0.3,0.3-0.7,0.5-1.2,0.5s-0.9-0.2-1.2-0.5c-0.3-0.3-0.5-0.7-0.5-1.2c0-0.5,0.2-0.9,0.5-1.2c0.3-0.3,0.7-0.5,1.2-0.5
				c0.5,0,0.9,0.2,1.2,0.5C13.9,32,14.1,32.4,14.1,32.9 M18.5,36.8c0.4-0.4,0.9-0.6,1.5-0.6s1.1,0.2,1.5,0.6c0.4,0.4,0.7,1,0.7,1.5
				c0,0.6-0.2,1.1-0.7,1.5c-0.4,0.4-0.9,0.7-1.5,0.7s-1.1-0.2-1.5-0.7c-0.4-0.4-0.6-0.9-0.6-1.5C17.9,37.8,18.1,37.2,18.5,36.8
				 M14.1,40.8c0.4,0,0.8,0.2,1.1,0.5s0.4,0.6,0.4,1s-0.1,0.8-0.4,1s-0.7,0.5-1.1,0.5s-0.8-0.2-1.1-0.5s-0.4-0.6-0.4-1
				s0.1-0.8,0.4-1S13.7,40.8,14.1,40.8 M39.5,29.8c-0.5,0.5-1,0.7-1.7,0.7c-0.6,0-1.2-0.2-1.6-0.7c-0.5-0.5-0.7-1-0.7-1.6
				c0-0.6,0.2-1.2,0.7-1.6s1-0.7,1.6-0.7c0.6,0,1.2,0.2,1.7,0.7s0.7,1,0.7,1.6C40.2,28.8,40,29.3,39.5,29.8 M36.3,35.8
				c0.5,0,1,0.2,1.4,0.5c0.4,0.4,0.6,0.9,0.6,1.4s-0.2,1-0.6,1.3c-0.4,0.4-0.8,0.6-1.4,0.6c-0.5,0-1-0.2-1.4-0.6
				c-0.4-0.4-0.5-0.8-0.5-1.3s0.2-1,0.5-1.4C35.4,36,35.8,35.8,36.3,35.8 M29.7,31.7c0.4,0.4,0.6,1,0.6,1.6c0,0.6-0.2,1.2-0.6,1.6
				c-0.4,0.4-1,0.6-1.6,0.6c-0.6,0-1.2-0.2-1.6-0.6c-0.4-0.4-0.6-1-0.6-1.6c0-0.6,0.2-1.2,0.6-1.6c0.4-0.4,1-0.7,1.6-0.7
				C28.7,31,29.3,31.3,29.7,31.7 M26.9,41c0.4-0.4,1-0.6,1.6-0.6s1.1,0.2,1.5,0.6c0.4,0.4,0.6,0.9,0.6,1.5S30.4,43.6,30,44
				c-0.4,0.4-0.9,0.7-1.5,0.7c-0.6,0-1.1-0.2-1.6-0.7c-0.4-0.4-0.6-0.9-0.6-1.5C26.3,41.9,26.5,41.4,26.9,41 M22.1,46.2
				c-0.2,0.2-0.4,0.2-0.6,0.2c-0.2,0-0.4-0.1-0.6-0.2c-0.2-0.2-0.2-0.4-0.2-0.6c0-0.2,0.1-0.4,0.2-0.6c0.2-0.2,0.4-0.2,0.6-0.2
				c0.2,0,0.4,0.1,0.6,0.2c0.2,0.2,0.2,0.4,0.2,0.6C22.4,45.9,22.3,46.1,22.1,46.2 M28.6,48.7c0.3,0,0.6,0.1,0.9,0.3
				c0.3,0.3,0.4,0.6,0.4,0.9c0,0.3-0.1,0.6-0.4,0.8c-0.2,0.3-0.5,0.4-0.9,0.4c-0.3,0-0.6-0.1-0.9-0.4c-0.2-0.2-0.4-0.5-0.4-0.8
				c0-0.3,0.1-0.6,0.4-0.9C28,48.8,28.3,48.7,28.6,48.7 M33.7,45.8c0-0.4,0.1-0.7,0.3-1c0.3-0.2,0.6-0.3,1-0.3
				c0.4,0,0.7,0.1,0.9,0.3c0.3,0.3,0.4,0.6,0.4,1c0,0.4-0.1,0.7-0.4,0.9c-0.2,0.3-0.5,0.4-0.9,0.4c-0.4,0-0.7-0.1-1-0.4
				C33.8,46.5,33.7,46.2,33.7,45.8z"/>
		</g>
	</g>
</g>
</svg>
