<?xml version="1.0" encoding="utf-8"?>
<!-- Generator: Adobe Illustrator 18.0.0, SVG Export Plug-In . SVG Version: 6.00 Build 0)  -->
<!DOCTYPE svg PUBLIC "-//W3C//DTD SVG 1.1//EN" "http://www.w3.org/Graphics/SVG/1.1/DTD/svg11.dtd">
<svg version="1.1" id="Слой_1" xmlns="http://www.w3.org/2000/svg" xmlns:xlink="http://www.w3.org/1999/xlink" x="0px" y="0px"
	 viewBox="0 0 612 792" enable-background="new 0 0 612 792" xml:space="preserve">
<g>
	<path fill="none" d="M98.5,408.7h106.4c2.9-21.4,12.4-40,28.6-56.3c19.7-19.7,42.9-29.5,70.3-29.5c27.4,0,51.4,9.8,70.3,29.5
		c16.2,16.2,25.8,34.9,28.6,56.3h105.7V190.6H98.5V408.7z M405.9,262.3c5.6-6.3,13.4-9.1,21.8-9.1c9.1,0,16.2,2.8,22.5,9.1
		c6.3,5.6,9.1,13.4,9.1,21.8s-2.8,15.5-9.1,21.8c-6.3,6.3-14.1,9.1-22.5,9.1c-8.4,0-15.5-2.8-21.8-9.1c-6.3-5.6-9.1-13.4-9.1-21.8
		S399.6,268.7,405.9,262.3z M183.6,260.9c0-2.1,0.7-3.5,2.8-5.6s4.2-2.8,6.3-2.8c2.1,0,3.5,1.4,5.6,2.8c2.1,1.4,2.8,3.5,2.8,5.6
		v38.7c0,2.8-1.4,4.9-2.8,6.3c-1.4,1.4-3.5,2.1-5.6,2.1c-2.8,0-4.9-0.7-6.3-2.1c-2.1-2.1-2.8-4.2-2.8-6.3V260.9z M152.6,260.9
		c0-2.1,0-3.5,2.1-5.6c2.1-2.1,4.2-2.8,6.3-2.8s4.2,1.4,6.3,2.8c2.1,1.4,2.8,3.5,2.8,5.6v38.7c0,2.8-1.4,4.9-2.8,6.3
		c-2.1,1.4-4.2,2.1-6.3,2.1c-2.8,0-4.9-0.7-6.3-2.1c-1.4-2.1-2.1-4.2-2.1-6.3V260.9z"/>
	<path fill="none" d="M303.9,362.2c-16.9,0-31,5.6-42.9,17.6c-12,12-17.6,26-17.6,42.9c0,16.9,5.6,31,17.6,42.9
		c12,12,26,17.6,42.9,17.6s31-5.6,42.9-17.6c12-12,17.6-26,17.6-42.9c0-16.9-5.6-31-17.6-42.9S320.8,362.2,303.9,362.2z"/>
	<path d="M192.7,308.1c2.1,0,4.2-0.7,5.6-2.1c1.4-1.4,2.8-3.5,2.8-6.3v-38.7c0-2.1-0.7-4.2-2.8-5.6c-2.1-1.4-3.5-2.8-5.6-2.8
		c-2.1,0-4.2,0.7-6.3,2.8s-2.8,3.5-2.8,5.6v38.7c0,2.1,0.7,4.2,2.8,6.3C187.8,307.4,189.9,308.1,192.7,308.1z"/>
	<path d="M161.1,308.1c2.1,0,4.2-0.7,6.3-2.1c1.4-1.4,2.8-3.5,2.8-6.3v-38.7c0-2.1-0.7-4.2-2.8-5.6c-2.1-1.4-4.2-2.8-6.3-2.8
		s-4.2,0.7-6.3,2.8c-2.1,2.1-2.1,3.5-2.1,5.6v38.7c0,2.1,0.7,4.2,2.1,6.3C156.2,307.4,158.3,308.1,161.1,308.1z"/>
	<path d="M510,147.7H97.8c-27.4,0-41.5,14.1-41.5,41.5v412.2c0,27.4,14.1,41.5,41.5,41.5H510c27.4,0,41.5-14.1,41.5-41.5V189.2
		C551.5,161.8,537.4,147.7,510,147.7z M346.8,465.6c-12,12-26,17.6-42.9,17.6s-31-5.6-42.9-17.6c-12-12-17.6-26-17.6-42.9
		c0-16.9,5.6-31,17.6-42.9c12-12,26-17.6,42.9-17.6s31,5.6,42.9,17.6s17.6,26,17.6,42.9C364.4,439.6,358.8,453.7,346.8,465.6z
		 M508.6,408.7H402.9c-2.9-21.4-12.4-40-28.6-56.3c-19-19.7-42.9-29.5-70.3-29.5c-27.4,0-50.6,9.8-70.3,29.5
		c-16.2,16.2-25.8,34.9-28.6,56.3H98.5V190.6h410.1V408.7z"/>
	<path d="M405.9,306c6.3,6.3,13.4,9.1,21.8,9.1c8.4,0,16.2-2.8,22.5-9.1c6.3-6.3,9.1-13.4,9.1-21.8s-2.8-16.2-9.1-21.8
		c-6.3-6.3-13.4-9.1-22.5-9.1c-8.4,0-16.2,2.8-21.8,9.1c-6.3,6.3-9.1,13.4-9.1,21.8S399.6,300.3,405.9,306z"/>
</g>
</svg>
