<?xml version="1.0" encoding="utf-8"?>
<!-- Generator: Adobe Illustrator 18.0.0, SVG Export Plug-In . SVG Version: 6.00 Build 0)  -->
<!DOCTYPE svg PUBLIC "-//W3C//DTD SVG 1.1//EN" "http://www.w3.org/Graphics/SVG/1.1/DTD/svg11.dtd">
<svg version="1.1" id="Слой_1" xmlns="http://www.w3.org/2000/svg" xmlns:xlink="http://www.w3.org/1999/xlink" x="0px" y="0px"
	 viewBox="0 0 36.7 50" enable-background="new 0 0 36.7 50" xml:space="preserve">
<g transform="matrix( 1, 0, 0, 1, 0,0) ">
	<g>
		<g id="Layer1_0_FILL">
			<path fill="#1FAB6F" d="M2.5,45.7c0,0.6,0.3,0.8,0.8,0.8h30.6c0.5,0,0.8-0.3,0.8-0.8V29.4H2.5V45.7 M17.4,33
				c0.6,0,1.2,0.1,1.6,0.2c0.5,0.1,0.9,0.3,1.2,0.6c0.4,0.3,0.6,0.6,0.8,1c0.2,0.4,0.2,0.9,0.2,1.4c0,0.3,0,0.6-0.1,0.8
				c-0.1,0.3-0.1,0.5-0.2,0.7c-0.2,0.4-0.5,0.8-0.9,1c-0.3,0.3-0.7,0.5-1.2,0.6c-0.4,0.1-0.9,0.1-1.4,0.1h-1.2v3h-2.1V33H17.4
				 M8.6,42.8c-1.3,0-2.1-0.5-2.6-1.5l1.2-0.9C7.4,40.9,7.8,41,8.4,41c0.3,0,0.6-0.1,0.8-0.3c0.1-0.1,0.2-0.2,0.2-0.5
				c0-0.2,0-0.5,0-0.8V33h2.3v6.5c0,0.6-0.1,1.2-0.2,1.6c-0.1,0.4-0.3,0.7-0.6,1c-0.3,0.3-0.6,0.5-0.9,0.6
				C9.6,42.8,9.1,42.8,8.6,42.8 M24.3,33.6c0.3-0.2,0.6-0.3,0.9-0.4c0.3-0.1,0.6-0.2,1-0.2c0.4-0.1,0.8-0.1,1.2-0.1
				c1.6,0,2.7,0.4,3.5,1.2l-0.6,1.5c-1.5-0.5-2.4-0.8-2.7-0.8c-0.5,0-1,0.1-1.4,0.2c-0.4,0.1-0.7,0.3-0.9,0.6
				c-0.2,0.3-0.4,0.6-0.6,1c-0.1,0.4-0.1,0.8-0.1,1.3s0.1,1,0.2,1.4c0.1,0.4,0.3,0.7,0.6,1c0.2,0.3,0.5,0.5,0.9,0.6
				c0.4,0.1,0.8,0.2,1.1,0.2c1,0,1.7-0.4,2-1.2v-0.9h-1.8V37h3.8v5.5h-1.6l-0.2-0.8c-0.3,0.3-0.6,0.6-1,0.8
				c-0.6,0.2-1.1,0.3-1.6,0.3c-0.4,0-0.7,0-1,0c-0.3-0.1-0.6-0.1-1-0.2c-0.3-0.1-0.5-0.3-0.8-0.5c-0.2-0.2-0.4-0.3-0.6-0.5
				c-0.2-0.2-0.3-0.5-0.5-0.8c-0.1-0.3-0.2-0.5-0.4-0.8c-0.1-0.4-0.2-1.1-0.3-2.1c0-0.4,0-0.7,0.1-1c0-0.4,0.1-0.7,0.2-1
				c0.1-0.3,0.2-0.6,0.4-0.8c0.2-0.3,0.4-0.5,0.6-0.8C23.8,34,24,33.8,24.3,33.6 M18.9,35.6c-0.1-0.2-0.2-0.4-0.5-0.5
				c-0.2-0.1-0.4-0.2-0.6-0.3c-0.2,0-0.5,0-0.8,0h-0.8V38H17c0.3,0,0.5,0,0.8-0.1c0.2-0.1,0.4-0.2,0.6-0.2c0.2-0.1,0.4-0.3,0.5-0.5
				c0.1-0.2,0.1-0.5,0.1-0.8S18.9,35.8,18.9,35.6 M9.6,8.6V2L2.7,8.6H9.6 M34.7,2.8c0-0.6-0.3-0.8-0.8-0.8H11.3v7.5
				c0,0.2-0.1,0.4-0.2,0.6c-0.2,0.2-0.4,0.2-0.7,0.2H2.5v17.3h32.2V2.8z"/>
		</g>
	</g>
</g>
</svg>
