<?xml version="1.0" encoding="utf-8"?>
<!-- Generator: Adobe Illustrator 18.0.0, SVG Export Plug-In . SVG Version: 6.00 Build 0)  -->
<!DOCTYPE svg PUBLIC "-//W3C//DTD SVG 1.1//EN" "http://www.w3.org/Graphics/SVG/1.1/DTD/svg11.dtd">
<svg version="1.1" id="Layer_1" xmlns="http://www.w3.org/2000/svg" xmlns:xlink="http://www.w3.org/1999/xlink" x="0px" y="0px"
	 viewBox="0 220.3 180.1 175.7" enable-background="new 0 220.3 180.1 175.7" xml:space="preserve">
<path fill="#050D0C" d="M145.1,326.1c1.2-1.2,1.7-2.6,1.2-3.8c-0.2-0.2-1.7-1-4.6,0c0,0,1.9-1,3.8-1c-2.4-1.7-7.4,1-10.3,2.2
	c-3.4,1.2-7.2,1.9-7.9,0.7s1.9-5.5,1-10.1c-1-4.8-1.7-6.7-0.7-8.6c0.7-1.2,1.9-2.6,3.1-3.4c-1-1.9-4.1-3.1-4.1-3.1
	c2.4,0.5,5.3,2.9,5.3,2.9l0,0c0.2,0,0.2,0,0.5,0c1.9,0.5,3.8,1.2,5.8,1.2c0.7-0.2,1.9-1,3.1-2.4c-1.2-1.4-0.7-2.2-0.7-2.2
	c0,1,0.7,2.2,0.7,2.2s0.7,0,1.7-0.5c0.2-0.2,0.2-0.2,0.5-0.5c0.2-0.5,0.5-1.2,0.2-1.7c-0.7-1.9-2.9-6.5-4.1-9.6
	c-1.2-3.1-1.4-4.6-2.9-6.7c-3.4-5.3-6.5-6.2-10.1-7.4s-4.8-1.7-6.2-6.5c-1.4-4.8-3.4-12.2-8.6-16.3c-5.3-3.8-7.7-5-8.9-7.4
	c-1.2-2.4-2.4-2.4-3.4-1.9c-2.2,1.4-1,8.9-0.5,10.6c0.2,0.7,0.5,1.4,0.7,1.9c0,0,2.9,1.9,3.4,2.6c0,0-3.8-2.2-5-2.9l0,0
	c-1.7-1-4.3-2.4-5.8-3.8c-2.6-2.2-3.8-4.3-6-3.1c-1.7,0.7-2.9,7.4,1.7,13c4.6,5.5,7.9,6.7,13.2,8.6c3.4,1.2,7.2,3.4,9.6,4.8l0,0
	c0,0,2.6,1.4,3.8,1.7c0,0-1.7,3.6-2.9,7.2l0,0c-1.2,3.6-2.9,7.4-4.3,9.4c-2.9,3.4-9.4,9.4-17.5,9.4s-22.1-9.8-31.4-9.8
	c-9.1,0-6.2,2.9-10.6,1c-2.9-1.2-6.5-3.6-8.6-5l0,0c0,0-0.7-0.2-1.7,0.2c0.7,1.4,1.9,3.4,3.6,5c0,0-2.4-1.7-4.3-4.6
	c-0.5,0.5-1,1-1.2,1.7c2.6,4.8,5.8,7,5.8,7c-2.2-0.7-4.3-2.9-6.2-5c-0.2,1.7-0.5,3.4-0.2,5.3c0.5,3.4,3.4,4.8,2.9,6
	c-0.2,1.2-1,2.2-1.4,4.3s0,4.1-1.7,4.6c-1.7,0.5-3.4,0.7-4.8-1.4c-1.4-2.2-2.2-3.8-4.3-3.1s-10.3,6-13.2,13.7
	c-1.4,3.6-2.2,6.2-2.6,8.2c3.1,1.7,4.6-3.8,4.6-3.8c-1,4.8-3.6,5-4.8,4.8c-0.2,1.4,0,2.4,0.7,2.4h0.2c0,0,3.4,0,4.1-2.4
	c0,0,0,1.2-1.2,2.2c1.7-0.5,3.6-1.9,4.3-5c1.4-5.8,3.6-10.6,5.5-10.8c1.9-0.2,1.7,1.2,2.4,2.6c1,1.4,1.9,3.6,6,5
	c4.1,1.2,5.5,0,6.2,1c0.7,1,4.6,5,2.6,5.8c-1.9,0.7-4.3,0-5.5-1c-1-1-2.4-5-4.6-4.8s-3.8,1.2-7.2,7.7c-3.4,6.5-5.3,13.9-4.8,16.3
	c0,0.2,0,0.2,0,0.5c1.7-0.2,2.4-1.4,2.6-2.4c-0.5,1.9-1.9,3.1-2.4,3.6c0.5,1.2,1,1.7,1.7,1.7c0.2,0,0.5,0,0.7-0.2l0,0l0,0
	c0.2-0.2,2.6-1.2,2.6-4.1c0,0,0,1.2,0,2.4c1.2-1.2,2.2-2.6,2.4-4.8c0-4.3,1.9-11.5,3.6-11.5c1.9,0,2.4,0.2,6.5,3.6
	c4.1,3.4,10.1,6.7,18,4.1c7.9-2.6,13-13,13-13s1.2-6.5,0-10.8c0,0,2.2,4.3,1.4,11.8c1.9,1.2,5.5,3.4,10.6,4.8
	c4.6,1.4,9.4,2.4,12.2,2.9c3.1-1.2,6.5-2.9,6.5-2.9c-0.7,0.5-3.4,3.4-3.4,3.4s-1.7,2.4-1.2,4.6c0.7,2.2,10.3,2.9,16.3,1.4
	c6-1.4,14.2-3.8,17.3-3.8c3.1,0,8.2,2.2,11.3,2.2c1.4,0,3.1-0.5,4.3-1.4c-0.7-2.2-5-2.2-5-2.2c4.6-0.5,5.5,1.7,5.5,1.7
	c0.5-0.7,0.7-1.4,0.5-2.4c0-0.2-0.2-0.7-0.5-1c-0.2-0.5-1.7-1.7-6-1.9c0,0,2.2-0.2,4.3,0.2c-2.2-1.9-5.5-3.6-7.9-3.1
	c-3.6,0.7-7.2,2.4-11.8,2.4c-0.5,0-0.7,0-1,0l0,0c-1.9,0-9.1,0.5-9.1,0.5c1.2-0.7,4.3-2.6,5.5-3.6c1.4-1,1.9-1.7,6.2-2.2
	c5-0.5,13.4-0.5,15.8-1c1-0.2,2.9-1.2,4.3-2.4c0,0-0.7-2.2-5.3-0.7C138.9,326.1,143,324.4,145.1,326.1z M132.2,286.5
	c0.5,0.2,1.4,0.7,1.2,2.2c0,1.4-2.2,1.4-2.6,1c-1-0.5-2.4-3.4-2.4-3.4S131.2,286,132.2,286.5z"/>
</svg>
