<?xml version="1.0" encoding="utf-8"?>
<!-- Generator: Adobe Illustrator 18.0.0, SVG Export Plug-In . SVG Version: 6.00 Build 0)  -->
<!DOCTYPE svg PUBLIC "-//W3C//DTD SVG 1.1//EN" "http://www.w3.org/Graphics/SVG/1.1/DTD/svg11.dtd">
<svg version="1.1" id="Слой_1" xmlns="http://www.w3.org/2000/svg" xmlns:xlink="http://www.w3.org/1999/xlink" x="0px" y="0px"
	 viewBox="0 0 99 120" enable-background="new 0 0 99 120" xml:space="preserve">
<g transform="matrix( 1, 0, 0, 1, 0,0) ">
	<g>
		<g id="Layer1_0_FILL">
			<path d="M52.7,3.5c-0.3-0.3-0.7-0.4-1.1-0.4c-0.4,0-0.7,0.1-1,0.4c-0.3,0.3-0.4,0.7-0.4,1.1v6.3c0,0.2-0.1,0.3-0.2,0.5v0.1
				c-0.1,0.2-0.3,0.3-0.5,0.4l-18.9,0.3c-0.3,0-0.5,0.1-0.8,0.2l-2,1.4c-0.1,0-0.1,0.1-0.2,0.1c-1.7,1.5-2.5,3.2-2.5,5.1
				c0,2.4,0.3,4.2,1,5.5c0.9,1.9,2.5,2.9,4.7,3.2c2.4,0.2,7.5,0.4,15.2,0.4l0.5,0.1c0.5,0.1,0.9,0.4,1.3,0.6c1.3,1.1,2,2.8,2,5.1
				c0,1.7,0,3,0,4c0,0.6-0.1,1.1-0.2,1.5c0,0.1,0,0.2,0,0.3c-7.9,0-14.6,3.4-20.2,10.3c-5.5,6.8-8.2,15-8.2,24.6s2.8,17.8,8.2,24.6
				c5.6,6.9,12.3,10.4,20.2,10.4s14.7-3.5,20.2-10.4c5.5-6.8,8.2-15,8.2-24.6S75.3,56.9,69.8,50C65,44,59.2,40.6,52.5,39.8
				c0,0,0-0.1,0-0.1c0.1-0.4,0.1-1,0.2-1.7c0-1,0-2.4,0-4.1c0-3.4-1.1-5.9-3.2-7.4c-0.7-0.5-1.4-0.9-2.1-1.1c-0.1,0-0.1-0.1-0.2-0.1
				l-0.8-0.1c-0.1,0-0.2,0-0.3,0c-7.7,0-12.7-0.1-15.1-0.4c-1.1-0.1-1.9-0.6-2.4-1.6v0c-0.4-1-0.7-2.4-0.7-4.2
				c0-1.1,0.5-2.1,1.5-2.9l1.5-1.1l18.4-0.4c1.3,0,2.3-0.6,3-1.8v0c0.3-0.5,0.5-1,0.6-1.6c0-0.1,0-0.2,0-0.2V4.6
				C53,4.2,52.9,3.8,52.7,3.5 M31.6,97.4C26.6,91.2,24,83.5,24,74.7c0-8.9,2.5-16.5,7.6-22.8c5-6.2,10.9-9.2,17.9-9.2s13,3.1,18,9.2
				c5.1,6.3,7.6,13.9,7.6,22.8s-2.5,16.5-7.6,22.8c-5,6.2-11,9.3-18,9.3C42.6,106.7,36.6,103.6,31.6,97.4z"/>
		</g>
	</g>
</g>
<g transform="matrix( 1, 0, 0, 1, 0,0) ">
	<g>
		<g id="Layer0_0_FILL">
			<path d="M55,53.4c0-2.2-1.1-3.3-3.2-3.3h-4c-2.2,0-3.2,1.1-3.2,3.3v3.9c0,2.2,1.1,3.3,3.2,3.3h4c2.2,0,3.2-1.1,3.2-3.3V53.4
				 M52,53.4v3.9c0,0.3-0.1,0.4-0.3,0.4h-4c-0.2,0-0.4-0.1-0.4-0.4v-3.9c0-0.3,0.1-0.4,0.4-0.4h4C51.9,53,52,53.1,52,53.4
				 M29.5,63.5c-1.9-0.8-3.4-1.5-4.5-2c-0.4-0.2-0.7-0.2-1.1-0.2c-0.4,0.1-0.7,0.3-0.9,0.7c-0.2,0.3-0.2,0.7-0.1,1.1
				c0.1,0.4,0.3,0.7,0.7,0.9c1.2,0.7,2.8,1.5,4.9,2.2c4.1,1.6,8.2,2.8,12.3,3.5c13.4,2.2,24.8-0.7,34-8.6c0.3-0.3,0.5-0.6,0.6-1
				c0-0.4-0.1-0.8-0.3-1c-0.3-0.3-0.6-0.5-1-0.5s-0.8,0.1-1.1,0.3c-8.7,7.4-19.2,10.1-31.8,8C37.3,66.1,33.4,65,29.5,63.5z"/>
		</g>
	</g>
</g>
</svg>
