<?xml version="1.0" encoding="utf-8"?>
<!-- Generator: Adobe Illustrator 18.0.0, SVG Export Plug-In . SVG Version: 6.00 Build 0)  -->
<!DOCTYPE svg PUBLIC "-//W3C//DTD SVG 1.1//EN" "http://www.w3.org/Graphics/SVG/1.1/DTD/svg11.dtd">
<svg version="1.1" id="Слой_1" xmlns="http://www.w3.org/2000/svg" xmlns:xlink="http://www.w3.org/1999/xlink" x="0px" y="0px"
	 viewBox="0 0 126.5 128.6" enable-background="new 0 0 126.5 128.6" xml:space="preserve">
<g transform="matrix( 1, 0, 0, 1, 0,0) ">
	<g>
		<g id="Layer4_0_FILL">
			<path fill="#33CC33" d="M97.2,11.9c-3.9,0-7.5,0.7-10.8,2.2c-3.1,1.3-5.9,3.2-8.5,5.8c-2.5,2.5-4.5,5.3-5.8,8.4
				c-0.6,1.1-1.1,2.3-1.5,3.6c-0.9,3-1.1,6.9-0.8,11.9c0.1,2-1,5.7-3.3,11c-0.9,1.9-1.7,3.7-2.6,5.3c1.6,2.5,3.4,4.8,5.7,6.9
				c2.1,2.1,4.3,4,6.7,5.5c1.7-0.9,3.5-1.8,5.4-2.6c5.3-2.4,8.9-3.5,11-3.3c4.9,0.4,8.8,0.1,11.8-0.8c1.3-0.4,2.5-0.9,3.6-1.5
				c3.1-1.3,5.9-3.3,8.4-5.8c5.3-5.3,7.9-11.7,7.9-19.2s-2.6-13.9-7.9-19.2c0,0-0.1,0-0.1,0l-0.2-0.2c0,0-0.1,0-0.1,0
				c-2.5-2.6-5.3-4.5-8.4-5.8C104.6,12.6,101,11.9,97.2,11.9z"/>
		</g>
	</g>
</g>
<g transform="matrix( 1, 0, 0, 1, 0,0) ">
	<g>
		<g id="Layer3_0_FILL">
			<path fill="#33CC33" d="M48.5,75.8c-1.3,1.5-2,3.3-2,5.4c0,2.3,0.8,4.2,2.4,5.8c1.6,1.6,3.5,2.4,5.9,2.4c2.2,0,4.1-0.8,5.7-2.3
				c0,0,0-0.1-0.1-0.1c-1.2-2.2-2.7-4.2-4.6-6c-1.9-1.9-3.9-3.4-6-4.7C49.3,76.2,48.9,76,48.5,75.8 M36.1,72.9
				c-7.7,0-14.2,2.7-19.6,8.2C11,86.5,8.3,93,8.3,100.8c0,7.7,2.7,14.2,8.2,19.7c5.4,5.4,11.9,8.2,19.6,8.2c7.7,0,14.2-2.7,19.7-8.2
				s8.2-12,8.2-19.7c0-3.1-0.5-6-1.4-8.8c-2.3,1.7-4.9,2.5-7.8,2.5c-0.4,0-0.7,0-1.1-0.1c0.7,2,1,4.1,1,6.3c0,5.1-1.8,9.5-5.4,13.1
				c-3.6,3.6-8,5.4-13.1,5.4c-5.1,0-9.5-1.8-13.1-5.4c-3.6-3.6-5.5-8-5.5-13.1c0-5.1,1.8-9.5,5.5-13.1c3.6-3.6,8-5.5,13.1-5.5
				c1.9,0,3.7,0.2,5.4,0.8c-0.1-0.6-0.1-1.2-0.1-1.8c0-2.7,0.7-5.2,2.2-7.2C41.2,73.3,38.7,72.9,36.1,72.9z"/>
		</g>
	</g>
</g>
<g transform="matrix( 1, 0, 0, 1, 0,0) ">
	<g>
		<g id="Layer2_0_FILL">
			<path fill="#33CC33" d="M48.8,75.3c-1.6,1.6-2.4,3.5-2.4,5.8c0,2.3,0.8,4.2,2.4,5.8c1.6,1.6,3.5,2.4,5.9,2.4
				c2.3,0,4.2-0.8,5.8-2.4s2.4-3.5,2.4-5.8s-0.8-4.2-2.4-5.8s-3.5-2.4-5.8-2.4C52.4,72.9,50.5,73.7,48.8,75.3z"/>
		</g>
	</g>
</g>
<g transform="matrix( 1, 0, 0, 1, 0,0) ">
	<g>
		<g id="Layer1_0_FILL">
			<path fill="#33CC33" d="M86.8,87.5c-0.7-1.6-1.9-2.7-3.5-3.3c-15.6-5.8-25.8-16.1-30.5-30.7c-0.5-1.6-1.5-2.8-3.1-3.7
				c-1.5-0.8-3.1-0.9-4.8-0.4c-1.6,0.5-2.8,1.5-3.6,3c-0.8,1.5-1,3.1-0.5,4.8c5.8,18.5,18.5,31.4,38.1,38.7c1.6,0.6,3.2,0.5,4.8-0.2
				c1.6-0.7,2.6-1.9,3.2-3.5C87.5,90.7,87.5,89.1,86.8,87.5z"/>
		</g>
	</g>
</g>
<g transform="matrix( 1, 0, 0, 1, 0,0) ">
	<g>
		<g id="Layer0_0_FILL">
			<path fill="#33CC33" d="M118.1,17.9c-5.5-5.6-12.2-8.3-20.2-8.3s-14.7,2.8-20.2,8.3c-5.5,5.6-8.3,12.3-8.3,20.2
				c0,7.9,2.8,14.6,8.3,20.2c5.6,5.6,12.3,8.4,20.2,8.4s14.6-2.8,20.2-8.4c5.6-5.6,8.4-12.3,8.4-20.2
				C126.5,30.2,123.7,23.5,118.1,17.9z"/>
		</g>
	</g>
</g>
</svg>
