<?xml version="1.0" encoding="utf-8"?>
<!-- Generator: Adobe Illustrator 18.0.0, SVG Export Plug-In . SVG Version: 6.00 Build 0)  -->
<!DOCTYPE svg PUBLIC "-//W3C//DTD SVG 1.1//EN" "http://www.w3.org/Graphics/SVG/1.1/DTD/svg11.dtd">
<svg version="1.1" id="Слой_1" xmlns="http://www.w3.org/2000/svg" xmlns:xlink="http://www.w3.org/1999/xlink" x="0px" y="0px"
	 viewBox="40.2 131.4 571.8 576.2" enable-background="new 40.2 131.4 571.8 576.2" xml:space="preserve">
<g>
	<path fill="#33CC33" d="M265.1,542.1c-1.9,0-3.4,0-5.3-0.5c3.4,9.7,4.8,19.8,4.8,30.5c0,24.7-8.7,46-26.1,63.4
		c-17.4,17.4-38.7,26.1-63.4,26.1s-46-8.7-63.4-26.1c-17.4-17.4-26.6-38.7-26.6-63.4s8.7-46,26.6-63.4
		c17.4-17.4,38.7-26.6,63.4-26.6c9.2,0,17.9,1,26.1,3.9c-0.5-2.9-0.5-5.8-0.5-8.7c0-13.1,3.4-25.2,10.6-34.8
		c-12.1-2.9-24.2-4.8-36.8-4.8c-37.3,0-68.7,13.1-94.8,39.7c-26.6,26.1-39.7,57.6-39.7,95.3c0,37.3,13.1,68.7,39.7,95.3
		c26.1,26.1,57.6,39.7,94.8,39.7c37.3,0,68.7-13.1,95.3-39.7c26.6-26.6,39.7-58.1,39.7-95.3c0-15-2.4-29-6.8-42.6
		C291.7,538.2,279.1,542.1,265.1,542.1z"/>
	<path fill="#33CC33" d="M403,492.3c-75.5-28.1-124.8-77.9-147.6-148.5c-2.4-7.7-7.3-13.5-15-17.9c-7.3-3.9-15-4.4-23.2-1.9
		c-7.7,2.4-13.5,7.3-17.4,14.5c-3.9,7.3-4.8,15-2.4,23.2c9.9,31.6,24,59.8,42.2,84.6c-1.2,0.9-2.3,1.9-3.5,3
		c-7.7,7.7-11.6,16.9-11.6,28.1c0,11.1,3.9,20.3,11.6,28.1c0.1,0.1,0.2,0.2,0.2,0.2c0.1,0.1,0.2,0.2,0.2,0.2
		c7.7,7.7,16.9,11.6,28.5,11.6c10.6,0,19.8-3.9,27.6-11.1c0,0,0-0.5-0.5-0.5c0,0,0,0,0,0c0.2-0.2,0.3-0.3,0.5-0.5
		c0.9-0.9,1.8-1.9,2.6-2.8c24.8,18.7,53.6,34.2,86.4,46.4c7.7,2.9,15.5,2.4,23.2-1c7.7-3.4,12.6-9.2,15.5-16.9
		c2.9-7.3,2.9-15-0.5-22.7C416.5,500.5,410.7,495.2,403,492.3z"/>
	<path fill="#33CC33" d="M612,269.2c0-38.2-13.5-70.6-40.6-97.7c-26.6-27.1-59-40.2-97.7-40.2c-38.7,0-71.1,13.5-97.7,40.2
		c-26.6,27.1-40.2,59.5-40.2,97.7c0,7.7,0.6,15.2,1.7,22.4c0.1,1.7,0.2,3.4,0.3,5.1c0.5,9.7-4.8,27.6-16,53.2
		c-4.4,9.2-8.2,17.9-12.6,25.6c7.7,12.1,16.4,23.2,27.6,33.4c10.2,10.2,20.8,19.4,32.4,26.6c8.2-4.4,16.9-8.7,26.1-12.6
		c25.6-11.6,43.1-16.9,53.2-16c13.3,1.1,25,1.1,35.3,0.2c33.8-2.2,62.9-15.7,87.5-40.3C598.5,339.9,612,307.5,612,269.2z"/>
</g>
</svg>
