<?xml version="1.0" encoding="utf-8"?>
<!-- Generator: Adobe Illustrator 18.0.0, SVG Export Plug-In . SVG Version: 6.00 Build 0)  -->
<!DOCTYPE svg PUBLIC "-//W3C//DTD SVG 1.1//EN" "http://www.w3.org/Graphics/SVG/1.1/DTD/svg11.dtd">
<svg version="1.1" id="Слой_1" xmlns="http://www.w3.org/2000/svg" xmlns:xlink="http://www.w3.org/1999/xlink" x="0px" y="0px"
	 viewBox="0 0 36.9 50" enable-background="new 0 0 36.9 50" xml:space="preserve">
<g transform="matrix( 1, 0, 0, 1, 0,0) ">
	<g>
		<g id="Layer1_0_FILL">
			<path fill="#1FAB6F" d="M2.5,45.7c0,0.6,0.3,0.8,0.8,0.8h30.6c0.5,0,0.8-0.3,0.8-0.8V29.4H2.5V45.7 M10.9,34
				c0.5,0.1,0.9,0.3,1.2,0.5c0.3,0.3,0.5,0.6,0.7,1c0.2,0.4,0.2,0.9,0.2,1.4c0,0.3,0,0.5-0.1,0.8c0,0.2-0.1,0.4-0.2,0.6
				c-0.2,0.4-0.5,0.7-0.8,1c-0.3,0.3-0.7,0.5-1.2,0.6c-0.4,0.1-0.8,0.1-1.3,0.1H8.2v2.8h-2v-9.1h3.2C9.9,33.8,10.5,33.9,10.9,34
				 M18.3,33.8l1.2,0.1c0.4,0,0.7,0.1,1,0.2c0.3,0.1,0.6,0.2,0.8,0.4c0.3,0.1,0.5,0.3,0.7,0.5c0.2,0.2,0.4,0.4,0.6,0.6
				c0.2,0.2,0.3,0.5,0.4,0.8c0.1,0.3,0.2,0.6,0.2,0.9c0,0.3,0,0.7,0,1.1c0,0.4,0,0.7,0,1c-0.1,0.3-0.1,0.6-0.2,0.9
				c-0.1,0.3-0.2,0.6-0.4,0.8c-0.1,0.2-0.3,0.5-0.6,0.7c-0.2,0.2-0.4,0.4-0.7,0.5s-0.5,0.2-0.9,0.3c-0.3,0.1-0.6,0.2-1,0.2l-1.2,0.1
				h-3.7v-9.1H18.3 M31.5,33.8v1.7h-4.2v2.4H31v1.6h-3.7v3.4h-2.1v-9.1H31.5 M19.5,35.8c-0.4-0.1-0.8-0.2-1.2-0.2h-1.5v5.5h1.6
				c0.5,0,0.9,0,1.2-0.1c0.3-0.1,0.6-0.3,0.9-0.5c0.2-0.2,0.4-0.5,0.5-0.9c0.1-0.3,0.1-0.7,0.1-1.2c0-0.5,0-0.9-0.1-1.2
				c-0.1-0.4-0.3-0.7-0.5-0.9C20.2,36.1,19.9,35.9,19.5,35.8 M10.9,37c0-0.3-0.1-0.5-0.2-0.7s-0.2-0.4-0.4-0.5
				c-0.2-0.1-0.4-0.2-0.6-0.2c-0.2-0.1-0.4-0.1-0.8-0.1H8.2v3.1h0.8c0.3,0,0.6,0,0.8-0.1c0.2-0.1,0.4-0.2,0.6-0.2
				c0.2-0.1,0.3-0.3,0.4-0.5C10.8,37.5,10.9,37.2,10.9,37 M9.6,8.6V2L2.7,8.6H9.6 M34.7,2.8c0-0.6-0.3-0.8-0.8-0.8H11.3v7.5
				c0,0.2-0.1,0.4-0.2,0.6c-0.2,0.2-0.4,0.2-0.7,0.2H2.5v17.3h32.2V2.8z"/>
		</g>
	</g>
</g>
</svg>
