<?xml version="1.0" encoding="utf-8"?>
<!-- Generator: Adobe Illustrator 18.0.0, SVG Export Plug-In . SVG Version: 6.00 Build 0)  -->
<!DOCTYPE svg PUBLIC "-//W3C//DTD SVG 1.1//EN" "http://www.w3.org/Graphics/SVG/1.1/DTD/svg11.dtd">
<svg version="1.1" id="Слой_1" xmlns="http://www.w3.org/2000/svg" xmlns:xlink="http://www.w3.org/1999/xlink" x="0px" y="0px"
	 viewBox="0 0 56.8 41.8" enable-background="new 0 0 56.8 41.8" xml:space="preserve">
<g transform="matrix( 1, 0, 0, 1, 0,0) ">
	<g>
		<g id="Layer0_0_FILL">
			<path fill="#568446" d="M11.1,14.3H4.3v13.4h6.8V14.3 M35.7,21c0-2-0.7-3.8-2.2-5.2c-1.2-1.2-2.7-1.9-4.4-2.1v14.6
				c1.7-0.2,3.2-0.9,4.4-2.1C35,24.7,35.7,23,35.7,21 M23.2,15.8c-1.4,1.4-2.1,3.2-2.1,5.2c0,2,0.7,3.7,2.1,5.1
				c1.3,1.3,2.8,2,4.5,2.1V13.7C26,13.8,24.5,14.5,23.2,15.8 M27.7,12.7L27.7,12.7l0-8.9H11.4c-4.7,0-7,2.3-7,7v2h8.3v16.4H4.3V32
				c0,4.7,2.3,7,7,7h16.4v-9.7h0c-2-0.2-3.8-1-5.2-2.5c-1.6-1.6-2.4-3.5-2.4-5.8s0.8-4.3,2.4-5.9C23.9,13.7,25.7,12.9,27.7,12.7
				 M52.2,10.8c0-4.7-2.3-7-7-7H29.1v8.9c0,0,0.1,0,0.1,0c2,0.2,3.7,1,5,2.4c1.6,1.6,2.5,3.6,2.5,5.9s-0.8,4.2-2.5,5.8
				c-1.4,1.5-3.1,2.3-5.1,2.5h0V39h16.1c4.7,0,7-2.3,7-7v-2.8H44V12.8h8.2V10.8 M52.2,14.2h-6.7v13.5h6.7V14.2z"/>
		</g>
	</g>
</g>
</svg>
