<?xml version="1.0" encoding="utf-8"?>
<!-- Generator: Adobe Illustrator 18.0.0, SVG Export Plug-In . SVG Version: 6.00 Build 0)  -->
<!DOCTYPE svg PUBLIC "-//W3C//DTD SVG 1.1//EN" "http://www.w3.org/Graphics/SVG/1.1/DTD/svg11.dtd">
<svg version="1.1" id="Слой_1" xmlns="http://www.w3.org/2000/svg" xmlns:xlink="http://www.w3.org/1999/xlink" x="0px" y="0px"
	 viewBox="0.3 0 53.2 50.1" enable-background="new 0.3 0 53.2 50.1" xml:space="preserve">
<g transform="matrix( 1, 0, 0, 1, 0,0) ">
	<g>
		<g id="Layer0_0_FILL">
			<path fill="#568446" d="M10.6,13.4c-2.6-0.4-5.2-0.9-7.6-1.7L0,10.7c0,7.8,0.8,15,2.5,21.7c3,12,8.2,18,15.6,17.8s12-6,14-17.5
				c0.7-3.8,1-11.2,1-22.2C26.5,13.7,19,14.7,10.6,13.4 M22.7,21.6c1.3-0.4,2.5-0.4,3.5-0.1c1.1,0.2,1.7,0.7,1.9,1.5
				c0.2,0.7-0.1,1.4-0.9,2.1c-0.7,0.7-1.8,1.3-3.1,1.6c-1.3,0.3-2.5,0.4-3.6,0.1c-1.1-0.2-1.7-0.7-1.9-1.4c-0.2-0.8,0.1-1.5,0.9-2.2
				C20.3,22.5,21.4,21.9,22.7,21.6 M14.7,27.4c-0.9,0.5-2.1,0.8-3.5,0.8c-1.4,0-2.5-0.3-3.5-0.8c-0.9-0.5-1.4-1.1-1.4-1.9
				s0.5-1.4,1.4-1.9c1-0.5,2.1-0.8,3.5-0.8s2.5,0.2,3.5,0.8c1,0.5,1.4,1.2,1.4,1.9S15.7,26.9,14.7,27.4 M15.2,43.8
				c-1.9-0.9-3.6-2.4-5.1-4.4c-1.3-1.9-1.9-3.6-1.9-5c3.1,4.2,7.5,5.5,13.3,4.1c2.9-0.7,5.4-1.9,7.7-3.4
				C25.2,43.3,20.5,46.2,15.2,43.8 M40,28c1.1,1.3,1.9,3.4,2.4,6.1C42,32.8,40.6,32,38,31.7l-3.7-0.2l-1.2,5.7c-0.2,1-0.5,2-1,3.2
				c0.1,0.8,1.7,1.3,4.8,1.5c6.8,0.3,11.5-5.5,14.2-17.5c1.3-5.7,2-13.9,2.3-24.5c-6.7,3.4-14.8,4.4-24.1,3
				c-2.9-0.4-5.8-1.1-8.6-1.9L17.4,0l1.2,10.9c2.6,0.4,5.6,0.2,8.9-0.6c0,0,2.5-0.8,7.3-2.2c0.1,2.1,0.2,4.6,0.3,7.3
				c0.1,2.7,0.4,6.2,0.9,10.5C37.7,26.1,39,26.8,40,28 M45.3,14.2c0.7,0.6,1,1.3,0.8,1.9c-0.2,0.6-0.7,1-1.6,1.1
				c-0.9,0.2-2,0.2-3.2-0.1c-1.2-0.3-2.1-0.8-2.8-1.4c-0.7-0.6-1-1.2-0.8-1.9c0.2-0.6,0.7-1,1.6-1.2c0.9-0.2,2-0.2,3.2,0.1
				C43.7,13.1,44.6,13.6,45.3,14.2z"/>
		</g>
	</g>
</g>
</svg>
