<svg xmlns="http://www.w3.org/2000/svg" viewBox="0 0 50 62" enable-background="new 0 0 50 62"><path fill="#568446" d="M23.2 10.2c-.7.3-1.2.7-1.5 1.2-.5.7-.5 1.4-.1 2.2.4.8.7 1.6.7 2.2 0 .6-.1 1.2-.4 1.8.3-.2.5-.5.8-.9.4-.8.4-1.8 0-2.8-.4-1.1-.5-2-.2-2.7.1-.2.4-.5.7-1m8.7-.2c.8-1.6.7-3-.2-4.4-.7-1.1-1.8-2-3.1-2.6.9.8 1.4 1.5 1.7 2.1.6 1.5.5 3.4-.5 5.6-.9 2.2-.9 4.1 0 5.8.4.8 1 1.5 1.6 1.9-.7-1.2-1-2.4-.9-3.7.1-1.5.5-3 1.4-4.7m14.6 10.6c-.3-.3-.8-.5-1.2-.5H5.6c-.5 0-.9.2-1.3.5-.3.4-.5.9-.5 1.4 0 .5.2.9.5 1.2.4.4.8.5 1.3.5h39.6c.5 0 .9-.2 1.2-.5.4-.3.5-.8.5-1.2.1-.5-.1-1-.4-1.4m-.8 5.6v-1H5.9v1c0 1.6.2 3.1.5 4.6h11.8c.4 0 .8.1 1.1.4.3.3.4.6.4 1v.1c0 .4-.1.7-.4 1-.3.3-.6.5-1.1.5H7.3c1 2.3 2.4 4.5 4.3 6.4l.8.8c-.1.1-.2.2-.2.4L5.5 56c-.2.4-.2.7-.1 1.1.1.4.4.7.8.9.4.2.7.2 1.1 0 .4-.1.7-.4.8-.8L12 49h25.3l4.9 8.2c.2.3.5.5 1 .7.4.1.8 0 1.1-.2.3-.2.5-.5.7-.9.1-.4 0-.8-.2-1.1l-7.8-13c.9-.7 1.9-1.5 2.8-2.4 4-3.9 5.9-8.5 5.9-14.1M12.5 48l2.4-5.1c3.2 2.2 6.8 3.3 10.9 3.2 3.2 0 6.1-.6 8.7-1.9l2.2 3.7H12.5z"/></svg>