<svg xmlns="http://www.w3.org/2000/svg" viewBox="0 0 48.8 45.1" enable-background="new 0 0 48.8 45.1"><path fill="#568446" d="M48.8 9.4C46 8.4 44 7.8 43 7.8c-1.6-.1-3.2.3-4.5 1.4 1.1-2 1.7-3.3 1.9-3.7.1-.4 0-1.5-.4-3.2-.6 1.7-1.2 3-1.9 3.8-.5.6-1.4 1.2-2.7 1.9-1.2-1.4-2.5-2.4-3.8-3.1-1.3-.7-2.9-1.1-4.8-1.2H25.1c-1.8.1-3.4.5-4.8 1.2-1.3.7-2.6 1.7-3.8 3.1-1.3-.7-2.2-1.3-2.7-1.9-.7-.8-1.3-2-1.9-3.8-.5 1.7-.6 2.7-.4 3.2.2.4.8 1.7 1.9 3.7-1.4-1.1-2.9-1.6-4.6-1.4-1 0-2.9.6-5.8 1.6-.1 2.2 1 3.8 3.5 4.7.9.3 2.9.6 5.9.9-1.4 4.2-.9 8.5 1.6 12.7.3.6 1.3 2 2.8 4.1.9 1.3 1.3 2.1 1.2 2.6-2.4 4.6-1.8 7.7 1.8 9.4 1.7.8 3.6 1.2 5.7 1.1h.4c2.1 0 4-.3 5.7-1.1 3.6-1.7 4.2-4.8 1.8-9.4-.1-.5.3-1.4 1.2-2.6 1.5-2.1 2.5-3.5 2.8-4.1 2.5-4.2 3.1-8.5 1.6-12.7 3-.3 5-.6 5.9-.9 2.9-.9 4-2.5 3.9-4.7m-27.9 2.4c1.6-.6 3.3-1 5-1.1h.1c1.7.1 3.4.4 5 1.1 3.4 1.3 4.8 3.4 4.3 6.4-.4 2.3-1.5 4-3.4 4.9-1.7.8-2.4 2.4-2.2 4.9.1 2.4 1 5.8 2.6 10 .6 3.1-1.3 4.7-5.7 4.7h-1.3c-4.4 0-6.3-1.5-5.8-4.7 1.6-4.3 2.5-7.6 2.6-10 .2-2.5-.6-4.1-2.2-4.9-1.9-.9-3-2.6-3.4-4.9-.5-3 1-5.1 4.4-6.4z"/></svg>