<svg xmlns="http://www.w3.org/2000/svg" viewBox="0 0 55 40" enable-background="new 0 0 55 40"><path fill="#568446" d="M42 4.3H7.8c0 5.3 1.7 9.8 5 13.6 1.6 1.8 3.4 3.2 5.4 4.1h-9c-1.4 0-2.6.5-3.6 1.5S4.2 25.7 4.2 27v.6c0 1.4.5 2.5 1.4 3.5 1 1 2.2 1.5 3.6 1.5h37.5v-1.5h-2.4v-7.6h2.4V22H31.6c2-.9 3.7-2.3 5.4-4.1.6-.6 1.1-1.3 1.6-2 0 0 .1 0 .1.1.8.4 1.7.7 2.7.7 1.6 0 2.9-.5 4-1.7l.1-.1c1.1-1.1 1.6-2.4 1.6-4 0-.5 0-1-.1-1.4-.1-.4-.3-.9-.5-1.2v-.2c-.3-.5-.7-.9-1.1-1.3-.9-.9-2-1.5-3.3-1.6-.1-.3-.1-.6-.1-.9m2 3.9c.3.3.5.6.6.9h.1l.3.9c.1.3.1.6.1.9 0 1-.4 1.9-1.1 2.6-.7.7-1.6 1.1-2.6 1.1-.6 0-1.2-.1-1.8-.4 0-.1.1-.2.2-.3.1-.3.3-.6.4-.8.8-1.8 1.3-3.7 1.6-5.8.8 0 1.6.4 2.2.9m-1.5 15.3v7.6h-33c-.4 0-.8 0-1.1-.1.2-.1.4-.3.5-.5.4-.4.6-.9.6-1.4v-3.3c0-.5-.2-1-.6-1.4-.3-.3-.6-.5-1-.5.5-.2 1-.4 1.6-.4h33z"/></svg>