<svg xmlns="http://www.w3.org/2000/svg" viewBox="0 0 58.4 58.5" enable-background="new 0 0 58.4 58.5"><path fill="#568446" d="M54.7 4.1C53.2 5.5 52 6.3 51 6.6c-1.2.3-.7-1.2 1.7-4.7-1.9-.5-4.2-.5-7.2-.1-5.8.9-11.3 3.8-16.4 8.5-2.5-.2-5.2.2-8.4 1.2-3.6 1.1-4.9 2.4-4 3.9.5.8 1.9 1.9 4.1 3.1 1.7.9 2.3 2.1 1.8 3.7-.1.5-.4 1.9-.7 4.2-.3 2.2-.6 3.9-1.1 5.1-1.3 4.1-4 6.2-8 6.3-5 .1-8.3.6-9.9 1.6-1.7 1-1.3 2.3 1.5 3.8 3.7 2.1 6.1 3.2 7.2 3.4l2.1 4.7c1.7 3.1 3.2 4.6 4.7 4.5 1.4-.1 2.2-1.4 2.4-4.1-.1-3.4-.2-5.9-.2-7.4 0-4.5 3.5-7.2 10.6-8.1 3-.4 5.8-1.1 8.3-2.2 1.3-.5 2.2-1 2.9-1.5l1.9 3.3c1.4 2.1 2.6 2.9 3.6 2.5 1.1-.5 1.9-1.9 2.4-4.3.5-2.2.6-4.6.3-7.2 1.8-3.8 3.2-7.4 4-10.8 1.4-5.4 1.5-9.3.1-11.9M40.8 6.7c.5-.5 1.2-.8 1.9-.8s1.3.2 1.8.8c.5.5.8 1.2.8 1.9s-.3 1.3-.8 1.8-1.1.8-1.8.8-1.4-.3-1.9-.8c-.6-.5-.8-1.1-.8-1.8s.2-1.4.8-1.9m.7 14.4c2.4 1.1 4.8 1.7 7 1.9-5.3 1.6-9.5.6-12.5-3-2.3-2.8-3.3-5.7-3.1-8.8.8 4.5 3.7 7.8 8.6 9.9z"/></svg>