<svg xmlns="http://www.w3.org/2000/svg" viewBox="0 0 57 55.1" enable-background="new 0 0 57 55.1"><path fill="#568446" d="M42 7.4c-.4-.1-.7-.2-1-.5-.1-.1-.1-.2-.2-.2-3.6-2.2-7.7-3.2-12.2-3.2-4.6 0-8.7 1.1-12.4 3.3 0 .1-.1.1-.1.2-.3.3-.6.5-.9.6-1.3.8-2.5 1.8-3.7 3-2 2-3.6 4.2-4.7 6.5.3.4.5.8.5 1.3s-.2 1-.6 1.4c-.3.3-.7.5-1.2.5-.7 2-1 4.2-1.1 6.5h.1c.6 0 1.2.2 1.6.6.5.5.7 1 .7 1.6 0 .6-.2 1.2-.7 1.6-.4.4-.9.7-1.5.7.7 5.1 3 9.6 6.8 13.4 4.7 4.7 10.5 7.1 17.1 7.1 6.7 0 12.4-2.4 17.2-7.1 3.9-3.9 6.2-8.5 6.9-13.8h-.2c-.7 0-1.3-.2-1.8-.8-.5-.5-.7-1.1-.7-1.8s.2-1.3.7-1.8c.5-.5 1.1-.7 1.8-.7h.4c-.1-1.6-.4-3.2-.8-4.7h-.4c-.6 0-1.2-.2-1.6-.7-.5-.5-.7-1-.7-1.6s.2-1.2.7-1.7c.1-.1.3-.2.5-.3-1.2-2.3-2.7-4.5-4.7-6.5-1.3-1-2.6-2-3.8-2.9m2.1 5.1c.5 0 1 .2 1.4.6.4.4.5.8.5 1.3s-.2 1-.5 1.4c-.4.4-.8.5-1.4.5s-1-.2-1.3-.5c-.4-.4-.5-.8-.5-1.4s.2-1 .5-1.3c.3-.4.8-.6 1.3-.6m-.3 9.5c.4-.4.9-.5 1.5-.5s1 .2 1.4.5c.4.4.6.9.6 1.5s-.2 1-.6 1.4c-.4.4-.8.6-1.4.6-.6 0-1-.2-1.5-.6-.4-.4-.5-.8-.5-1.4s.2-1.1.5-1.5m-1.1 9.8c.4-.4 1-.6 1.5-.6s1.1.2 1.5.6c.4.4.6 1 .6 1.5 0 .6-.2 1.1-.6 1.5-.4.4-.9.7-1.5.7s-1.1-.2-1.5-.7c-.4-.4-.6-.9-.6-1.5s.1-1.1.6-1.5m2.1 9.9c.4.4.5.8.5 1.3s-.2.9-.5 1.3-.8.5-1.3.5-.9-.2-1.3-.5c-.4-.4-.6-.8-.6-1.3s.2-.9.6-1.3c.4-.4.8-.6 1.3-.6s.9.2 1.3.6M36 7.9c.5 0 .9.2 1.3.5s.5.8.5 1.3-.2.9-.5 1.3-.8.6-1.3.6-.9-.2-1.3-.6c-.4-.4-.6-.8-.6-1.3s.2-.9.6-1.3c.3-.3.8-.5 1.3-.5m-9.1-2.6c.3-.3.7-.5 1.1-.5s.8.2 1.1.5c.3.3.5.7.5 1.1s-.2.8-.5 1.1c-.3.3-.7.5-1.1.5s-.8-.2-1.1-.5c-.3-.3-.4-.7-.4-1.1 0-.4.1-.8.4-1.1m-4.9 4c.3.3.5.7.5 1.1 0 .4-.2.8-.5 1.1-.3.3-.7.5-1.1.5-.4 0-.8-.2-1.1-.5-.3-.3-.5-.7-.5-1.1 0-.4.1-.8.5-1.1.2-.3.6-.4 1.1-.4.4 0 .7.1 1.1.4m8.2 5.5c0 .6-.2 1.1-.6 1.5-.4.4-1 .7-1.6.7s-1.1-.2-1.5-.7c-.4-.4-.6-.9-.6-1.5s.2-1.1.6-1.6c.4-.4.9-.6 1.5-.6s1.1.2 1.6.6c.4.4.6 1 .6 1.6m-8 4.2c0 .6-.2 1.1-.7 1.5-.4.4-.9.6-1.5.6s-1.1-.2-1.5-.6c-.4-.4-.6-.9-.6-1.5s.2-1.1.6-1.6c.4-.4.9-.6 1.5-.6s1.1.2 1.5.6c.5.4.7 1 .7 1.6m3.8 4.6c0-.7.2-1.3.8-1.8.5-.5 1.1-.8 1.8-.8s1.3.2 1.8.8c.5.5.8 1.1.8 1.8s-.2 1.3-.8 1.8-1.1.8-1.8.8-1.3-.2-1.8-.8-.8-1.1-.8-1.8m12.6-6.4c.5.5.7 1 .7 1.6 0 .6-.2 1.2-.7 1.6-.4.5-1 .7-1.6.7s-1.2-.2-1.7-.7c-.4-.4-.6-1-.6-1.6 0-.6.2-1.2.6-1.6.5-.4 1-.6 1.7-.6s1.2.2 1.6.6m-24.4-4.3c.4.4.6.8.6 1.3s-.2.9-.6 1.2c-.3.4-.8.6-1.2.6s-.9-.2-1.3-.6c-.3-.3-.5-.8-.5-1.2 0-.5.2-.9.5-1.3.4-.3.8-.5 1.3-.5.4 0 .9.2 1.2.5m-.8 8.7c.4.4.7 1 .7 1.6 0 .6-.2 1.1-.7 1.5-.4.4-.9.6-1.5.6s-1.1-.2-1.6-.6c-.4-.4-.6-.9-.6-1.5s.2-1.1.6-1.6c.4-.4.9-.6 1.6-.6s1.2.2 1.5.6m4.4 7c0-.6.2-1.2.6-1.6.4-.4 1-.6 1.6-.6s1.2.2 1.6.6c.4.4.6 1 .6 1.6 0 .6-.2 1.2-.6 1.6-.4.4-1 .6-1.6.6s-1.2-.2-1.6-.6c-.4-.4-.6-.9-.6-1.6m-3.7 4.3c0 .5-.2.9-.5 1.2-.3.3-.7.5-1.2.5s-.9-.2-1.2-.5c-.3-.3-.5-.7-.5-1.2s.2-.9.5-1.2c.3-.3.7-.5 1.2-.5s.9.2 1.2.5c.3.3.5.7.5 1.2m4.4 3.9c.4-.4.9-.6 1.5-.6s1.1.2 1.5.6c.4.4.7 1 .7 1.5 0 .6-.2 1.1-.7 1.5-.4.4-.9.7-1.5.7s-1.1-.2-1.5-.7c-.4-.4-.6-.9-.6-1.5 0-.5.2-1.1.6-1.5m-4.4 4c.4 0 .8.2 1.1.5s.4.6.4 1-.1.8-.4 1-.7.5-1.1.5-.8-.2-1.1-.5-.4-.6-.4-1 .1-.8.4-1 .7-.5 1.1-.5m25.4-11c-.5.5-1 .7-1.7.7-.6 0-1.2-.2-1.6-.7-.5-.5-.7-1-.7-1.6 0-.6.2-1.2.7-1.6s1-.7 1.6-.7c.6 0 1.2.2 1.7.7s.7 1 .7 1.6c0 .6-.2 1.1-.7 1.6m-3.2 6c.5 0 1 .2 1.4.5.4.4.6.9.6 1.4s-.2 1-.6 1.3c-.4.4-.8.6-1.4.6-.5 0-1-.2-1.4-.6-.4-.4-.5-.8-.5-1.3s.2-1 .5-1.4c.5-.3.9-.5 1.4-.5m-6.6-4.1c.4.4.6 1 .6 1.6 0 .6-.2 1.2-.6 1.6-.4.4-1 .6-1.6.6-.6 0-1.2-.2-1.6-.6-.4-.4-.6-1-.6-1.6 0-.6.2-1.2.6-1.6.4-.4 1-.7 1.6-.7.6 0 1.2.3 1.6.7M26.9 41c.4-.4 1-.6 1.6-.6s1.1.2 1.5.6c.4.4.6.9.6 1.5s-.2 1.1-.6 1.5c-.4.4-.9.7-1.5.7s-1.1-.2-1.6-.7c-.4-.4-.6-.9-.6-1.5s.2-1.1.6-1.5m-4.8 5.2c-.2.2-.4.2-.6.2-.2 0-.4-.1-.6-.2-.2-.2-.2-.4-.2-.6 0-.2.1-.4.2-.6.2-.2.4-.2.6-.2.2 0 .4.1.6.2.2.2.2.4.2.6.1.3 0 .5-.2.6m6.5 2.5c.3 0 .6.1.9.3.3.3.4.6.4.9 0 .3-.1.6-.4.8-.2.3-.5.4-.9.4-.3 0-.6-.1-.9-.4-.2-.2-.4-.5-.4-.8 0-.3.1-.6.4-.9.3-.2.6-.3.9-.3m5.1-2.9c0-.4.1-.7.3-1 .3-.2.6-.3 1-.3s.7.1.9.3c.3.3.4.6.4 1s-.1.7-.4.9c-.2.3-.5.4-.9.4s-.7-.1-1-.4c-.2-.2-.3-.5-.3-.9z"/></svg>