<svg xmlns="http://www.w3.org/2000/svg" viewBox="0 0 612 792" enable-background="new 0 0 612 792"><path d="M98.5 408.7h106.4c2.9-21.4 12.4-40 28.6-56.3 19.7-19.7 42.9-29.5 70.3-29.5s51.4 9.8 70.3 29.5c16.2 16.2 25.8 34.9 28.6 56.3h105.7V190.6H98.5v218.1zm307.4-146.4c5.6-6.3 13.4-9.1 21.8-9.1 9.1 0 16.2 2.8 22.5 9.1 6.3 5.6 9.1 13.4 9.1 21.8s-2.8 15.5-9.1 21.8c-6.3 6.3-14.1 9.1-22.5 9.1s-15.5-2.8-21.8-9.1c-6.3-5.6-9.1-13.4-9.1-21.8s2.8-15.4 9.1-21.8zm-222.3-1.4c0-2.1.7-3.5 2.8-5.6s4.2-2.8 6.3-2.8c2.1 0 3.5 1.4 5.6 2.8 2.1 1.4 2.8 3.5 2.8 5.6v38.7c0 2.8-1.4 4.9-2.8 6.3-1.4 1.4-3.5 2.1-5.6 2.1-2.8 0-4.9-.7-6.3-2.1-2.1-2.1-2.8-4.2-2.8-6.3v-38.7zm-31 0c0-2.1 0-3.5 2.1-5.6 2.1-2.1 4.2-2.8 6.3-2.8s4.2 1.4 6.3 2.8c2.1 1.4 2.8 3.5 2.8 5.6v38.7c0 2.8-1.4 4.9-2.8 6.3-2.1 1.4-4.2 2.1-6.3 2.1-2.8 0-4.9-.7-6.3-2.1-1.4-2.1-2.1-4.2-2.1-6.3v-38.7zM303.9 362.2c-16.9 0-31 5.6-42.9 17.6-12 12-17.6 26-17.6 42.9s5.6 31 17.6 42.9c12 12 26 17.6 42.9 17.6s31-5.6 42.9-17.6c12-12 17.6-26 17.6-42.9s-5.6-31-17.6-42.9-26-17.6-42.9-17.6z" fill="none"/><path d="M192.7 308.1c2.1 0 4.2-.7 5.6-2.1 1.4-1.4 2.8-3.5 2.8-6.3V261c0-2.1-.7-4.2-2.8-5.6-2.1-1.4-3.5-2.8-5.6-2.8-2.1 0-4.2.7-6.3 2.8s-2.8 3.5-2.8 5.6v38.7c0 2.1.7 4.2 2.8 6.3 1.4 1.4 3.5 2.1 6.3 2.1zM161.1 308.1c2.1 0 4.2-.7 6.3-2.1 1.4-1.4 2.8-3.5 2.8-6.3V261c0-2.1-.7-4.2-2.8-5.6-2.1-1.4-4.2-2.8-6.3-2.8s-4.2.7-6.3 2.8c-2.1 2.1-2.1 3.5-2.1 5.6v38.7c0 2.1.7 4.2 2.1 6.3 1.4 1.4 3.5 2.1 6.3 2.1zM510 147.7H97.8c-27.4 0-41.5 14.1-41.5 41.5v412.2c0 27.4 14.1 41.5 41.5 41.5H510c27.4 0 41.5-14.1 41.5-41.5V189.2c0-27.4-14.1-41.5-41.5-41.5zM346.8 465.6c-12 12-26 17.6-42.9 17.6s-31-5.6-42.9-17.6c-12-12-17.6-26-17.6-42.9s5.6-31 17.6-42.9c12-12 26-17.6 42.9-17.6s31 5.6 42.9 17.6 17.6 26 17.6 42.9-5.6 31-17.6 42.9zm161.8-56.9H402.9c-2.9-21.4-12.4-40-28.6-56.3-19-19.7-42.9-29.5-70.3-29.5s-50.6 9.8-70.3 29.5c-16.2 16.2-25.8 34.9-28.6 56.3H98.5V190.6h410.1v218.1zM405.9 306c6.3 6.3 13.4 9.1 21.8 9.1s16.2-2.8 22.5-9.1c6.3-6.3 9.1-13.4 9.1-21.8s-2.8-16.2-9.1-21.8c-6.3-6.3-13.4-9.1-22.5-9.1-8.4 0-16.2 2.8-21.8 9.1-6.3 6.3-9.1 13.4-9.1 21.8s2.8 16.1 9.1 21.8z"/></svg>