<svg xmlns="http://www.w3.org/2000/svg" viewBox="0 0 36.7 50" enable-background="new 0 0 36.7 50"><path fill="#1FAB6F" d="M2.5 45.7c0 .6.3.8.8.8h30.6c.5 0 .8-.3.8-.8V29.4H2.5v16.3M17.4 33c.6 0 1.2.1 1.6.2.5.1.9.3 1.2.6.4.3.6.6.8 1 .2.4.2.9.2 1.4 0 .3 0 .6-.1.8-.1.3-.1.5-.2.7-.2.4-.5.8-.9 1-.3.3-.7.5-1.2.6-.4.1-.9.1-1.4.1h-1.2v3h-2.1V33h3.3m-8.8 9.8c-1.3 0-2.1-.5-2.6-1.5l1.2-.9c.2.5.6.6 1.2.6.3 0 .6-.1.8-.3.1-.1.2-.2.2-.5V33h2.3v6.5c0 .6-.1 1.2-.2 1.6-.1.4-.3.7-.6 1-.3.3-.6.5-.9.6-.4.1-.9.1-1.4.1m15.7-9.2c.3-.2.6-.3.9-.4.3-.1.6-.2 1-.2.4-.1.8-.1 1.2-.1 1.6 0 2.7.4 3.5 1.2l-.6 1.5c-1.5-.5-2.4-.8-2.7-.8-.5 0-1 .1-1.4.2-.4.1-.7.3-.9.6-.2.3-.4.6-.6 1-.1.4-.1.8-.1 1.3s.1 1 .2 1.4c.1.4.3.7.6 1 .2.3.5.5.9.6.4.1.8.2 1.1.2 1 0 1.7-.4 2-1.2V39h-1.8v-2h3.8v5.5h-1.6l-.2-.8c-.3.3-.6.6-1 .8-.6.2-1.1.3-1.6.3h-1c-.3-.1-.6-.1-1-.2-.3-.1-.5-.3-.8-.5-.2-.2-.4-.3-.6-.5-.2-.2-.3-.5-.5-.8-.1-.3-.2-.5-.4-.8-.1-.4-.2-1.1-.3-2.1 0-.4 0-.7.1-1 0-.4.1-.7.2-1 .1-.3.2-.6.4-.8.2-.3.4-.5.6-.8.1-.3.3-.5.6-.7m-5.4 2c-.1-.2-.2-.4-.5-.5l-.6-.3h-1.6V38h.8c.3 0 .5 0 .8-.1.2-.1.4-.2.6-.2.2-.1.4-.3.5-.5.1-.2.1-.5.1-.8s-.1-.6-.1-.8m-9.3-27V2L2.7 8.6h6.9m25.1-5.8c0-.6-.3-.8-.8-.8H11.3v7.5c0 .2-.1.4-.2.6-.2.2-.4.2-.7.2H2.5v17.3h32.2V2.8z"/></svg>