<svg xmlns="http://www.w3.org/2000/svg" viewBox="0 220.3 180.1 175.7" enable-background="new 0 220.3 180.1 175.7"><path fill="#050D0C" d="M145.1 326.1c1.2-1.2 1.7-2.6 1.2-3.8-.2-.2-1.7-1-4.6 0 0 0 1.9-1 3.8-1-2.4-1.7-7.4 1-10.3 2.2-3.4 1.2-7.2 1.9-7.9.7s1.9-5.5 1-10.1c-1-4.8-1.7-6.7-.7-8.6.7-1.2 1.9-2.6 3.1-3.4-1-1.9-4.1-3.1-4.1-3.1 2.4.5 5.3 2.9 5.3 2.9h.5c1.9.5 3.8 1.2 5.8 1.2.7-.2 1.9-1 3.1-2.4-1.2-1.4-.7-2.2-.7-2.2 0 1 .7 2.2.7 2.2s.7 0 1.7-.5l.5-.5c.2-.5.5-1.2.2-1.7-.7-1.9-2.9-6.5-4.1-9.6-1.2-3.1-1.4-4.6-2.9-6.7-3.4-5.3-6.5-6.2-10.1-7.4s-4.8-1.7-6.2-6.5c-1.4-4.8-3.4-12.2-8.6-16.3-5.3-3.8-7.7-5-8.9-7.4-1.2-2.4-2.4-2.4-3.4-1.9-2.2 1.4-1 8.9-.5 10.6.2.7.5 1.4.7 1.9 0 0 2.9 1.9 3.4 2.6 0 0-3.8-2.2-5-2.9-1.7-1-4.3-2.4-5.8-3.8-2.6-2.2-3.8-4.3-6-3.1-1.7.7-2.9 7.4 1.7 13 4.6 5.5 7.9 6.7 13.2 8.6 3.4 1.2 7.2 3.4 9.6 4.8 0 0 2.6 1.4 3.8 1.7 0 0-1.7 3.6-2.9 7.2s-2.9 7.4-4.3 9.4c-2.9 3.4-9.4 9.4-17.5 9.4s-22.1-9.8-31.4-9.8c-9.1 0-6.2 2.9-10.6 1-2.9-1.2-6.5-3.6-8.6-5 0 0-.7-.2-1.7.2.7 1.4 1.9 3.4 3.6 5 0 0-2.4-1.7-4.3-4.6-.5.5-1 1-1.2 1.7 2.6 4.8 5.8 7 5.8 7-2.2-.7-4.3-2.9-6.2-5-.2 1.7-.5 3.4-.2 5.3.5 3.4 3.4 4.8 2.9 6-.2 1.2-1 2.2-1.4 4.3s0 4.1-1.7 4.6-3.4.7-4.8-1.4c-1.4-2.2-2.2-3.8-4.3-3.1s-10.3 6-13.2 13.7c-1.4 3.6-2.2 6.2-2.6 8.2 3.1 1.7 4.6-3.8 4.6-3.8-1 4.8-3.6 5-4.8 4.8-.2 1.4 0 2.4.7 2.4h.2s3.4 0 4.1-2.4c0 0 0 1.2-1.2 2.2 1.7-.5 3.6-1.9 4.3-5 1.4-5.8 3.6-10.6 5.5-10.8 1.9-.2 1.7 1.2 2.4 2.6 1 1.4 1.9 3.6 6 5 4.1 1.2 5.5 0 6.2 1 .7 1 4.6 5 2.6 5.8-1.9.7-4.3 0-5.5-1-1-1-2.4-5-4.6-4.8s-3.8 1.2-7.2 7.7c-3.4 6.5-5.3 13.9-4.8 16.3v.5c1.7-.2 2.4-1.4 2.6-2.4-.5 1.9-1.9 3.1-2.4 3.6.5 1.2 1 1.7 1.7 1.7.2 0 .5 0 .7-.2.2-.2 2.6-1.2 2.6-4.1v2.4c1.2-1.2 2.2-2.6 2.4-4.8 0-4.3 1.9-11.5 3.6-11.5 1.9 0 2.4.2 6.5 3.6s10.1 6.7 18 4.1c7.9-2.6 13-13 13-13s1.2-6.5 0-10.8c0 0 2.2 4.3 1.4 11.8 1.9 1.2 5.5 3.4 10.6 4.8 4.6 1.4 9.4 2.4 12.2 2.9 3.1-1.2 6.5-2.9 6.5-2.9-.7.5-3.4 3.4-3.4 3.4s-1.7 2.4-1.2 4.6c.7 2.2 10.3 2.9 16.3 1.4 6-1.4 14.2-3.8 17.3-3.8 3.1 0 8.2 2.2 11.3 2.2 1.4 0 3.1-.5 4.3-1.4-.7-2.2-5-2.2-5-2.2 4.6-.5 5.5 1.7 5.5 1.7.5-.7.7-1.4.5-2.4 0-.2-.2-.7-.5-1-.2-.5-1.7-1.7-6-1.9 0 0 2.2-.2 4.3.2-2.2-1.9-5.5-3.6-7.9-3.1-3.6.7-7.2 2.4-11.8 2.4h-1c-1.9 0-9.1.5-9.1.5 1.2-.7 4.3-2.6 5.5-3.6 1.4-1 1.9-1.7 6.2-2.2 5-.5 13.4-.5 15.8-1 1-.2 2.9-1.2 4.3-2.4 0 0-.7-2.2-5.3-.7.9 0 5-1.7 7.1 0zm-12.9-39.6c.5.2 1.4.7 1.2 2.2 0 1.4-2.2 1.4-2.6 1-1-.5-2.4-3.4-2.4-3.4s2.8-.3 3.8.2z"/></svg>