<svg xmlns="http://www.w3.org/2000/svg" viewBox="0 0 99 120" enable-background="new 0 0 99 120"><path d="M52.7 3.5c-.3-.3-.7-.4-1.1-.4-.4 0-.7.1-1 .4-.3.3-.4.7-.4 1.1v6.3c0 .2-.1.3-.2.5v.1c-.1.2-.3.3-.5.4l-18.9.3c-.3 0-.5.1-.8.2l-2 1.4c-.1 0-.1.1-.2.1-1.7 1.5-2.5 3.2-2.5 5.1 0 2.4.3 4.2 1 5.5.9 1.9 2.5 2.9 4.7 3.2 2.4.2 7.5.4 15.2.4l.5.1c.5.1.9.4 1.3.6 1.3 1.1 2 2.8 2 5.1v4c0 .6-.1 1.1-.2 1.5v.3c-7.9 0-14.6 3.4-20.2 10.3-5.5 6.8-8.2 15-8.2 24.6s2.8 17.8 8.2 24.6c5.6 6.9 12.3 10.4 20.2 10.4s14.7-3.5 20.2-10.4c5.5-6.8 8.2-15 8.2-24.6S75.3 56.9 69.8 50c-4.8-6-10.6-9.4-17.3-10.2v-.1c.1-.4.1-1 .2-1.7v-4.1c0-3.4-1.1-5.9-3.2-7.4-.7-.5-1.4-.9-2.1-1.1-.1 0-.1-.1-.2-.1l-.8-.1h-.3c-7.7 0-12.7-.1-15.1-.4-1.1-.1-1.9-.6-2.4-1.6-.4-1-.7-2.4-.7-4.2 0-1.1.5-2.1 1.5-2.9l1.5-1.1 18.4-.4c1.3 0 2.3-.6 3-1.8.3-.5.5-1 .6-1.6V4.6c.1-.4 0-.8-.2-1.1M31.6 97.4c-5-6.2-7.6-13.9-7.6-22.7 0-8.9 2.5-16.5 7.6-22.8 5-6.2 10.9-9.2 17.9-9.2s13 3.1 18 9.2c5.1 6.3 7.6 13.9 7.6 22.8s-2.5 16.5-7.6 22.8c-5 6.2-11 9.3-18 9.3-6.9-.1-12.9-3.2-17.9-9.4z"/><path d="M55 53.4c0-2.2-1.1-3.3-3.2-3.3h-4c-2.2 0-3.2 1.1-3.2 3.3v3.9c0 2.2 1.1 3.3 3.2 3.3h4c2.2 0 3.2-1.1 3.2-3.3v-3.9m-3 0v3.9c0 .3-.1.4-.3.4h-4c-.2 0-.4-.1-.4-.4v-3.9c0-.3.1-.4.4-.4h4c.2 0 .3.1.3.4M29.5 63.5c-1.9-.8-3.4-1.5-4.5-2-.4-.2-.7-.2-1.1-.2-.4.1-.7.3-.9.7-.2.3-.2.7-.1 1.1.1.4.3.7.7.9 1.2.7 2.8 1.5 4.9 2.2 4.1 1.6 8.2 2.8 12.3 3.5 13.4 2.2 24.8-.7 34-8.6.3-.3.5-.6.6-1 0-.4-.1-.8-.3-1-.3-.3-.6-.5-1-.5s-.8.1-1.1.3c-8.7 7.4-19.2 10.1-31.8 8-3.9-.8-7.8-1.9-11.7-3.4z"/></svg>