<svg xmlns="http://www.w3.org/2000/svg" viewBox="40.2 131.4 571.8 576.2" enable-background="new 40.2 131.4 571.8 576.2"><g fill="#3c3"><path d="M265.1 542.1c-1.9 0-3.4 0-5.3-.5 3.4 9.7 4.8 19.8 4.8 30.5 0 24.7-8.7 46-26.1 63.4-17.4 17.4-38.7 26.1-63.4 26.1s-46-8.7-63.4-26.1c-17.4-17.4-26.6-38.7-26.6-63.4s8.7-46 26.6-63.4c17.4-17.4 38.7-26.6 63.4-26.6 9.2 0 17.9 1 26.1 3.9-.5-2.9-.5-5.8-.5-8.7 0-13.1 3.4-25.2 10.6-34.8-12.1-2.9-24.2-4.8-36.8-4.8-37.3 0-68.7 13.1-94.8 39.7C53.1 503.5 40 535 40 572.7c0 37.3 13.1 68.7 39.7 95.3 26.1 26.1 57.6 39.7 94.8 39.7 37.3 0 68.7-13.1 95.3-39.7 26.6-26.6 39.7-58.1 39.7-95.3 0-15-2.4-29-6.8-42.6-11 8.1-23.6 12-37.6 12zM403 492.3c-75.5-28.1-124.8-77.9-147.6-148.5-2.4-7.7-7.3-13.5-15-17.9-7.3-3.9-15-4.4-23.2-1.9-7.7 2.4-13.5 7.3-17.4 14.5-3.9 7.3-4.8 15-2.4 23.2 9.9 31.6 24 59.8 42.2 84.6-1.2.9-2.3 1.9-3.5 3-7.7 7.7-11.6 16.9-11.6 28.1 0 11.1 3.9 20.3 11.6 28.1l.2.2.2.2c7.7 7.7 16.9 11.6 28.5 11.6 10.6 0 19.8-3.9 27.6-11.1 0 0 0-.5-.5-.5l.5-.5c.9-.9 1.8-1.9 2.6-2.8 24.8 18.7 53.6 34.2 86.4 46.4 7.7 2.9 15.5 2.4 23.2-1 7.7-3.4 12.6-9.2 15.5-16.9 2.9-7.3 2.9-15-.5-22.7-3.3-7.9-9.1-13.2-16.8-16.1zM612 269.2c0-38.2-13.5-70.6-40.6-97.7-26.6-27.1-59-40.2-97.7-40.2s-71.1 13.5-97.7 40.2c-26.6 27.1-40.2 59.5-40.2 97.7 0 7.7.6 15.2 1.7 22.4l.3 5.1c.5 9.7-4.8 27.6-16 53.2-4.4 9.2-8.2 17.9-12.6 25.6 7.7 12.1 16.4 23.2 27.6 33.4 10.2 10.2 20.8 19.4 32.4 26.6 8.2-4.4 16.9-8.7 26.1-12.6 25.6-11.6 43.1-16.9 53.2-16 13.3 1.1 25 1.1 35.3.2 33.8-2.2 62.9-15.7 87.5-40.3 27.2-26.9 40.7-59.3 40.7-97.6z"/></g></svg>