<svg xmlns="http://www.w3.org/2000/svg" viewBox="0 0 36.9 50" enable-background="new 0 0 36.9 50"><path fill="#1FAB6F" d="M2.5 45.7c0 .6.3.8.8.8h30.6c.5 0 .8-.3.8-.8V29.4H2.5v16.3M10.9 34c.5.1.9.3 1.2.5.3.3.5.6.7 1 .2.4.2.9.2 1.4 0 .3 0 .5-.1.8 0 .2-.1.4-.2.6-.2.4-.5.7-.8 1-.3.3-.7.5-1.2.6-.4.1-.8.1-1.3.1H8.2v2.8h-2v-9.1h3.2c.5.1 1.1.2 1.5.3m7.4-.2l1.2.1c.4 0 .7.1 1 .2.3.1.6.2.8.4.3.1.5.3.7.5l.6.6c.2.2.3.5.4.8.1.3.2.6.2.9v2.1c-.1.3-.1.6-.2.9-.1.3-.2.6-.4.8-.1.2-.3.5-.6.7-.2.2-.4.4-.7.5s-.5.2-.9.3c-.3.1-.6.2-1 .2l-1.2.1h-3.7v-9.1h3.8m13.2 0v1.7h-4.2v2.4H31v1.6h-3.7v3.4h-2.1v-9.1h6.3m-12 2c-.4-.1-.8-.2-1.2-.2h-1.5v5.5h1.6c.5 0 .9 0 1.2-.1.3-.1.6-.3.9-.5.2-.2.4-.5.5-.9.1-.3.1-.7.1-1.2s0-.9-.1-1.2c-.1-.4-.3-.7-.5-.9-.3-.2-.6-.4-1-.5M10.9 37c0-.3-.1-.5-.2-.7s-.2-.4-.4-.5c-.2-.1-.4-.2-.6-.2-.2-.1-.4-.1-.8-.1h-.7v3.1H9c.3 0 .6 0 .8-.1.2-.1.4-.2.6-.2.2-.1.3-.3.4-.5 0-.3.1-.6.1-.8M9.6 8.6V2L2.7 8.6h6.9m25.1-5.8c0-.6-.3-.8-.8-.8H11.3v7.5c0 .2-.1.4-.2.6-.2.2-.4.2-.7.2H2.5v17.3h32.2V2.8z"/></svg>