<svg xmlns="http://www.w3.org/2000/svg" viewBox="0 0 56.8 41.8" enable-background="new 0 0 56.8 41.8"><path fill="#568446" d="M11.1 14.3H4.3v13.4h6.8V14.3M35.7 21c0-2-.7-3.8-2.2-5.2-1.2-1.2-2.7-1.9-4.4-2.1v14.6c1.7-.2 3.2-.9 4.4-2.1 1.5-1.5 2.2-3.2 2.2-5.2m-12.5-5.2c-1.4 1.4-2.1 3.2-2.1 5.2s.7 3.7 2.1 5.1c1.3 1.3 2.8 2 4.5 2.1V13.7c-1.7.1-3.2.8-4.5 2.1m4.5-3.1V3.8H11.4c-4.7 0-7 2.3-7 7v2h8.3v16.4H4.3V32c0 4.7 2.3 7 7 7h16.4v-9.7c-2-.2-3.8-1-5.2-2.5-1.6-1.6-2.4-3.5-2.4-5.8s.8-4.3 2.4-5.9c1.4-1.4 3.2-2.2 5.2-2.4m24.5-1.9c0-4.7-2.3-7-7-7H29.1v8.9h.1c2 .2 3.7 1 5 2.4 1.6 1.6 2.5 3.6 2.5 5.9s-.8 4.2-2.5 5.8c-1.4 1.5-3.1 2.3-5.1 2.5V39h16.1c4.7 0 7-2.3 7-7v-2.8H44V12.8h8.2v-2m0 3.4h-6.7v13.5h6.7V14.2z"/></svg>