<svg xmlns="http://www.w3.org/2000/svg" viewBox="0.3 0 53.2 50.1" enable-background="new 0.3 0 53.2 50.1"><path fill="#568446" d="M10.6 13.4C8 13 5.4 12.5 3 11.7l-3-1c0 7.8.8 15 2.5 21.7 3 12 8.2 18 15.6 17.8s12-6 14-17.5c.7-3.8 1-11.2 1-22.2-6.6 3.2-14.1 4.2-22.5 2.9m12.1 8.2c1.3-.4 2.5-.4 3.5-.1 1.1.2 1.7.7 1.9 1.5.2.7-.1 1.4-.9 2.1-.7.7-1.8 1.3-3.1 1.6-1.3.3-2.5.4-3.6.1-1.1-.2-1.7-.7-1.9-1.4-.2-.8.1-1.5.9-2.2.8-.7 1.9-1.3 3.2-1.6m-8 5.8c-.9.5-2.1.8-3.5.8s-2.5-.3-3.5-.8c-.9-.5-1.4-1.1-1.4-1.9s.5-1.4 1.4-1.9c1-.5 2.1-.8 3.5-.8s2.5.2 3.5.8c1 .5 1.4 1.2 1.4 1.9s-.4 1.4-1.4 1.9m.5 16.4c-1.9-.9-3.6-2.4-5.1-4.4-1.3-1.9-1.9-3.6-1.9-5 3.1 4.2 7.5 5.5 13.3 4.1 2.9-.7 5.4-1.9 7.7-3.4-4 8.2-8.7 11.1-14 8.7M40 28c1.1 1.3 1.9 3.4 2.4 6.1-.4-1.3-1.8-2.1-4.4-2.4l-3.7-.2-1.2 5.7c-.2 1-.5 2-1 3.2.1.8 1.7 1.3 4.8 1.5 6.8.3 11.5-5.5 14.2-17.5 1.3-5.7 2-13.9 2.3-24.5-6.7 3.4-14.8 4.4-24.1 3-2.9-.4-5.8-1.1-8.6-1.9l-3.3-1 1.2 10.9c2.6.4 5.6.2 8.9-.6 0 0 2.5-.8 7.3-2.2.1 2.1.2 4.6.3 7.3.1 2.7.4 6.2.9 10.5 1.7.2 3 .9 4 2.1m5.3-13.8c.7.6 1 1.3.8 1.9-.2.6-.7 1-1.6 1.1-.9.2-2 .2-3.2-.1-1.2-.3-2.1-.8-2.8-1.4-.7-.6-1-1.2-.8-1.9.2-.6.7-1 1.6-1.2.9-.2 2-.2 3.2.1 1.2.4 2.1.9 2.8 1.5z"/></svg>