
<svg xmlns="http://www.w3.org/2000/svg" version="1.1" xmlns:xlink="http://www.w3.org/1999/xlink" preserveAspectRatio="none" x="0px" y="0px" width="50px" height="50px" viewBox="0 0 50 50">
<defs>
<g id="Layer0_0_FILL">
<path fill="#000000" stroke="none" d="
M 22.95 1.3
Q 22.55 1.75 22.55 2.35
L 22.55 45.35 19.1 42.35
Q 18.65 41.95 18.05 42 17.45 42.05 17.05 42.5 16.65 42.95 16.7 43.55 16.75 44.15 17.2 44.55
L 23 49.65
Q 23.45 50 24 50 24.6 50.05 25.05 49.65
L 30.85 44.55
Q 31.3 44.15 31.35 43.55 31.4 42.95 31 42.5 30.6 42.05 30 42 29.4 41.95 28.95 42.35
L 25.45 45.45 25.45 2.35
Q 25.45 1.75 25 1.3 24.6 0.9 24 0.9 23.4 0.9 22.95 1.3 Z"/>
</g>
</defs>

<g transform="matrix( 1, 0, 0, 1, 0,0) ">
<use xlink:href="#Layer0_0_FILL"/>
</g>
</svg>
