<?xml version="1.0" encoding="utf-8"?>
<!-- Generator: Adobe Illustrator 18.0.0, SVG Export Plug-In . SVG Version: 6.00 Build 0)  -->
<!DOCTYPE svg PUBLIC "-//W3C//DTD SVG 1.1//EN" "http://www.w3.org/Graphics/SVG/1.1/DTD/svg11.dtd">
<svg version="1.1" id="Слой_1" xmlns="http://www.w3.org/2000/svg" xmlns:xlink="http://www.w3.org/1999/xlink" x="0px" y="0px"
	 viewBox="0 0 48.8 45.1" enable-background="new 0 0 48.8 45.1" xml:space="preserve">
<g transform="matrix( 1, 0, 0, 1, 0,0) ">
	<g>
		<g id="Layer0_0_FILL">
			<path fill="#568446" d="M48.8,9.4C46,8.4,44,7.8,43,7.8c-1.6-0.1-3.2,0.3-4.5,1.4c1.1-2,1.7-3.3,1.9-3.7C40.5,5.1,40.4,4,40,2.3
				c-0.6,1.7-1.2,3-1.9,3.8c-0.5,0.6-1.4,1.2-2.7,1.9c-1.2-1.4-2.5-2.4-3.8-3.1c-1.3-0.7-2.9-1.1-4.8-1.2c-0.2,0-0.5,0-0.8,0
				c-0.1,0-0.1,0-0.1,0c-0.3,0-0.5,0-0.8,0c-1.8,0.1-3.4,0.5-4.8,1.2C19,5.6,17.7,6.6,16.5,8c-1.3-0.7-2.2-1.3-2.7-1.9
				c-0.7-0.8-1.3-2-1.9-3.8c-0.5,1.7-0.6,2.7-0.4,3.2c0.2,0.4,0.8,1.7,1.9,3.7c-1.4-1.1-2.9-1.6-4.6-1.4C7.8,7.8,5.9,8.4,3,9.4
				c-0.1,2.2,1,3.8,3.5,4.7c0.9,0.3,2.9,0.6,5.9,0.9c-1.4,4.2-0.9,8.5,1.6,12.7c0.3,0.6,1.3,2,2.8,4.1c0.9,1.3,1.3,2.1,1.2,2.6
				c-2.4,4.6-1.8,7.7,1.8,9.4c1.7,0.8,3.6,1.2,5.7,1.1c0.1,0,0.1,0,0.2,0c0.1,0,0.1,0,0.2,0c2.1,0,4-0.3,5.7-1.1
				c3.6-1.7,4.2-4.8,1.8-9.4c-0.1-0.5,0.3-1.4,1.2-2.6c1.5-2.1,2.5-3.5,2.8-4.1c2.5-4.2,3.1-8.5,1.6-12.7c3-0.3,5-0.6,5.9-0.9
				C47.8,13.2,48.9,11.6,48.8,9.4 M20.9,11.8c1.6-0.6,3.3-1,5-1.1c0.1,0,0.1,0,0.1,0c1.7,0.1,3.4,0.4,5,1.1c3.4,1.3,4.8,3.4,4.3,6.4
				c-0.4,2.3-1.5,4-3.4,4.9c-1.7,0.8-2.4,2.4-2.2,4.9c0.1,2.4,1,5.8,2.6,10c0.6,3.1-1.3,4.7-5.7,4.7c-0.1,0-0.1,0-0.1,0h-1
				c-0.1,0-0.1,0-0.2,0c-4.4,0-6.3-1.5-5.8-4.7c1.6-4.3,2.5-7.6,2.6-10c0.2-2.5-0.6-4.1-2.2-4.9c-1.9-0.9-3-2.6-3.4-4.9
				C16,15.2,17.5,13.1,20.9,11.8z"/>
		</g>
	</g>
</g>
</svg>
