<?xml version="1.0" encoding="utf-8"?>
<!-- Generator: Adobe Illustrator 18.0.0, SVG Export Plug-In . SVG Version: 6.00 Build 0)  -->
<!DOCTYPE svg PUBLIC "-//W3C//DTD SVG 1.1//EN" "http://www.w3.org/Graphics/SVG/1.1/DTD/svg11.dtd">
<svg version="1.1" id="Слой_1" xmlns="http://www.w3.org/2000/svg" xmlns:xlink="http://www.w3.org/1999/xlink" x="0px" y="0px"
	 viewBox="0 0 50 50" enable-background="new 0 0 50 50" xml:space="preserve">
<g transform="matrix( 1, 0, 0, 1, 0,0) ">
	<g>
		<path d="M15.6,36.2c-0.3,0-0.6-0.1-0.9-0.4c-0.5-0.5-0.5-1.3,0-1.8l9.2-9.2l-9.2-9.2c-0.5-0.5-0.5-1.3,0-1.8s1.3-0.5,1.8,0
			l9.2,9.2l9.2-9.2c0.5-0.5,1.3-0.5,1.8,0c0.5,0.5,0.5,1.3,0,1.8l-9.2,9.2l9.2,9.2c0.5,0.5,0.5,1.3,0,1.8s-1.3,0.5-1.8,0l-9.2-9.2
			l-9.2,9.2C16.2,36.1,15.9,36.2,15.6,36.2z"/>
	</g>
</g>
</svg>
